<?xml version="1.0" encoding="utf-8"?>
<!-- Generator: Adobe Illustrator 24.3.0, SVG Export Plug-In . SVG Version: 6.00 Build 0)  -->
<svg version="1.1" id="Calque_1" xmlns="http://www.w3.org/2000/svg" xmlns:xlink="http://www.w3.org/1999/xlink" x="0px" y="0px"
	 viewBox="0 0 1693.6 514.4" style="enable-background:new 0 0 1693.6 514.4;" xml:space="preserve">
<style type="text/css">
	.st0{fill:#EE741B;}
	.st1{enable-background:new    ;}
</style>
<path class="st0" d="M271.3,168.4v187h38.1v-187H271.3z M288.4,197.4h-8.1v-8.1h8.1V197.4z M288.4,185.6h-8.1v-8.1h8.1V185.6z
	 M300.2,197.4h-8.1v-8.1h8.1V197.4z M300.2,185.6h-8.1v-8.1h8.1V185.6z"/>
<path class="st0" d="M418.4,241.1c0,40.1-32.5,72.7-72.6,72.7c0,0,0,0,0,0h-26.2v-37.2h27.2c19.8,0,35.9-16.1,35.9-35.9
	c0-19.8-16.1-35.9-35.9-35.9h-27.2v-36.4h26.2C385.9,168.4,418.4,201,418.4,241.1C418.4,241.1,418.4,241.1,418.4,241.1L418.4,241.1z
	"/>
<polygon class="st0" points="300.2,159 300.2,162.4 265.3,162.4 265.3,197.3 261.8,197.3 261.8,159 "/>
<path class="st0" d="M182,318.4c-2.3,2.4-4,5.2-5.3,8.2c2-1,3.8-2.3,5.5-3.7c3-2.5,6.6-4.1,10.5-4.5c1.1-0.1,2.2-0.2,3.3-0.1
	c3.6,0.1,7.2,0.1,10.8,0.1h41c1.4,0,2.5,1.1,2.5,2.5l0,0v34.5H120.8l0.2-2.7c0.5-5.7,1.7-11.2,3.5-16.6c3.8-12,10.5-23.1,21.1-34.9
	c9.9-11,20.9-21.2,31.6-31l1.4-1.3c1-0.9,2-1.8,2.9-2.7c7.2-6.6,14.7-13.4,20.7-21.2c6.4-8.2,8.8-17,7.2-26
	c-0.5-3.2-1.7-6.3-3.6-8.9c-3.4-4.7-8.9-7.3-16.1-7.6c-3.1-0.2-6.2,0.2-9.2,1c2.6-2.9,4.9-5.5,7.2-8.2c-7.9,3.3-14.4,9.2-18.4,16.7
	c0,0.1,0,0.1-0.1,0.1c-0.3,0.5-0.5,1-0.8,1.5c-0.1,0.2-0.2,0.4-0.3,0.5c-1,2.4-1.7,4.8-2.1,7.4c-0.3,1.5-0.5,3-0.7,4.6
	c-0.1,0.8-0.2,1.6-0.3,2.4l-0.4,2.4l-37.6-3.6c-1.4-0.1-2.4-1.4-2.3-2.7c0-0.1,0-0.1,0-0.2l0,0c0.2-1.1,0.4-2.3,0.6-3.4
	c0.4-2.5,0.8-4.8,1.3-7.2c3-13.2,8.1-22.6,16.2-29.7c8-7.1,18.1-11.8,29.9-13.8c14.7-2.6,28.1-1.9,40.8,2
	c23.1,7.2,37.5,27.4,36.8,51.3c-0.5,14.4-5.8,28.1-16.2,42.1c-6.6,8.9-14.8,16.4-22.6,23.7l-0.7,0.6c-2.2,2-4.3,4-6.5,6
	c-3.2,3-6.5,6-9.8,9c-2.2,2-4.4,4.1-6.5,6.2C186,313.5,184,315.8,182,318.4C182,318.3,182,318.4,182,318.4z"/>
<path class="st0" d="M511.1,257.2c0,125.4-110.5,227.1-247.2,228.1c125.4-12.7,220.9-110,220.9-228.1c0-118.2-95.6-215.5-221-228.1
	C400.6,30.1,511.1,131.8,511.1,257.2z"/>
<path class="st0" d="M267.2,467.6c50.3,0.1,99-18,137.2-50.8c-41.3,40.1-96.7,62.5-154.3,62.4c-120.7,0-218.9-96.3-221.9-216.2
	c0-1,0-1.9-0.1-2.9c0-1,0-1.9,0-2.9c0-1,0-1.9,0-2.9c0-1,0-1.9,0.1-2.9c3-119.9,101.2-216.2,221.9-216.2
	c57.6-0.1,112.9,22.3,154.3,62.4c-38.1-32.9-86.8-50.9-137.2-50.8C151,46.8,56.8,141,56.8,257.2C56.8,373.4,151,467.6,267.2,467.6z"
	/>
<g>
	<g class="st1">
		<path class="st0" d="M616.2,184h50.3v28.9h-88v-156h37.7V184z"/>
		<path class="st0" d="M774.3,95.8c9.6,5.1,17.2,12.4,22.7,21.9c5.5,9.6,8.3,20.7,8.3,33.5s-2.8,24-8.3,33.5
			c-5.5,9.6-13.1,16.9-22.7,21.9c-9.6,5.1-20.6,7.6-32.8,7.6c-12.2,0-23.2-2.5-32.9-7.6c-9.7-5.1-17.3-12.4-22.8-21.9
			c-5.5-9.6-8.3-20.7-8.3-33.5s2.8-24,8.3-33.5c5.5-9.6,13.1-16.9,22.8-21.9c9.7-5.1,20.7-7.6,32.9-7.6
			C753.7,88.2,764.6,90.8,774.3,95.8z M723.3,128.7c-4.9,5.2-7.4,12.8-7.4,22.6c0,9.9,2.5,17.4,7.4,22.5c4.9,5.2,11,7.7,18.2,7.7
			c7.2,0,13.2-2.6,18.1-7.7c4.9-5.1,7.3-12.6,7.3-22.5c0-9.9-2.4-17.4-7.3-22.6c-4.9-5.2-10.9-7.8-18.1-7.8
			C734.3,120.9,728.2,123.5,723.3,128.7z"/>
		<path class="st0" d="M920.4,101.3c10.7,8.8,17.5,20.8,20.3,36.1h-39.9c-1.2-5.3-3.6-9.4-7.3-12.4c-3.7-2.9-8.3-4.4-13.9-4.4
			c-6.6,0-12.1,2.6-16.3,7.8c-4.3,5.2-6.4,12.8-6.4,22.8c0,10,2.1,17.6,6.4,22.8c4.3,5.2,9.7,7.8,16.3,7.8c5.6,0,10.2-1.5,13.9-4.4
			c3.7-2.9,6.1-7.1,7.3-12.4h39.9c-2.8,15.3-9.6,27.3-20.3,36.1c-10.7,8.8-24,13.1-39.9,13.1c-12.1,0-22.8-2.5-32.1-7.6
			c-9.3-5.1-16.7-12.4-21.9-21.9c-5.3-9.6-7.9-20.7-7.9-33.5c0-12.9,2.6-24.2,7.8-33.6s12.5-16.8,21.9-21.8
			c9.4-5.1,20.1-7.6,32.2-7.6C896.4,88.2,909.7,92.6,920.4,101.3z"/>
		<path class="st0" d="M1031.4,94.6c6.8,4.3,11.8,10.1,15,17.4V89.8h37.5v123.1h-37.5v-22.3c-3.2,7.4-8.2,13.2-15,17.4
			c-6.8,4.3-14.9,6.4-24.3,6.4c-10.1,0-19.2-2.5-27.2-7.6c-8-5.1-14.3-12.4-19-21.9c-4.6-9.6-6.9-20.7-6.9-33.5
			c0-12.9,2.3-24.2,6.9-33.6s11-16.8,19-21.8c8-5.1,17.1-7.6,27.2-7.6C1016.5,88.2,1024.6,90.3,1031.4,94.6z M999.7,129.2
			c-4.9,5.3-7.4,12.7-7.4,22.1c0,9.4,2.5,16.8,7.4,22.1c4.9,5.3,11.4,7.9,19.5,7.9c7.9,0,14.4-2.7,19.5-8.2
			c5.1-5.4,7.6-12.7,7.6-21.8c0-9.3-2.5-16.6-7.6-21.9c-5.1-5.4-11.6-8.1-19.5-8.1C1011.1,121.3,1004.6,124,999.7,129.2z"/>
		<path class="st0" d="M1179.6,180.4v32.4h-17c-14.4,0-25.6-3.6-33.6-10.7c-8-7.1-12-18.9-12-35.4v-45.2h-16.5V89.8h16.5V59.5h37.7
			v30.2h24.7v31.8h-24.7v45.9c0,4.9,1,8.2,3,10.1c2,1.9,5.3,2.9,10,2.9H1179.6z"/>
		<path class="st0" d="M1203.4,40.9c4.1-3.7,9.6-5.6,16.3-5.6c6.8,0,12.2,1.9,16.3,5.6c4.1,3.8,6.2,8.5,6.2,14.2
			c0,5.6-2.1,10.3-6.2,14c-4.1,3.7-9.6,5.6-16.3,5.6c-6.8,0-12.2-1.9-16.3-5.6c-4.1-3.8-6.2-8.4-6.2-14
			C1197.2,49.4,1199.3,44.7,1203.4,40.9z M1238.5,89.8v123.1h-37.7V89.8H1238.5z"/>
		<path class="st0" d="M1354.8,95.8c9.6,5.1,17.2,12.4,22.7,21.9c5.5,9.6,8.3,20.7,8.3,33.5s-2.8,24-8.3,33.5
			c-5.5,9.6-13.1,16.9-22.7,21.9c-9.6,5.1-20.5,7.6-32.8,7.6s-23.2-2.5-32.9-7.6c-9.7-5.1-17.3-12.4-22.8-21.9
			c-5.5-9.6-8.3-20.7-8.3-33.5s2.8-24,8.3-33.5c5.5-9.6,13.1-16.9,22.8-21.9c9.7-5.1,20.7-7.6,32.9-7.6S1345.2,90.8,1354.8,95.8z
			 M1303.9,128.7c-4.9,5.2-7.4,12.8-7.4,22.6c0,9.9,2.5,17.4,7.4,22.5c4.9,5.2,11,7.7,18.2,7.7c7.2,0,13.2-2.6,18.1-7.7
			c4.9-5.1,7.3-12.6,7.3-22.5c0-9.9-2.4-17.4-7.3-22.6c-4.9-5.2-10.9-7.8-18.1-7.8C1314.9,120.9,1308.8,123.5,1303.9,128.7z"/>
		<path class="st0" d="M1517.2,102.6c8.3,9.4,12.5,22.4,12.5,38.8v71.5h-37.7v-67.1c0-8.2-2.2-14.7-6.5-19.3
			c-4.3-4.6-10.1-6.9-17.3-6.9c-7.6,0-13.7,2.4-18.2,7.3c-4.5,4.9-6.7,11.8-6.7,20.7v65.3h-37.7V89.8h37.7v22.5
			c3.5-7.4,8.8-13.2,15.8-17.4c7-4.3,15.2-6.4,24.6-6.4C1497.7,88.4,1508.9,93.1,1517.2,102.6z"/>
	</g>
	<g class="st1">
		<path class="st0" d="M635.4,440.7l26.7-86.2h40.1l-43.7,123.1h-46.8l-43.7-123.1h40.1L635.4,440.7z"/>
		<path class="st0" d="M788.9,359.3c6.8,4.3,11.8,10.1,15,17.4v-22.3h37.5v123.1h-37.5v-22.3c-3.2,7.4-8.2,13.2-15,17.4
			c-6.8,4.3-14.9,6.4-24.3,6.4c-10.1,0-19.2-2.5-27.2-7.6c-8-5.1-14.3-12.4-19-21.9c-4.6-9.6-6.9-20.7-6.9-33.5
			c0-12.9,2.3-24.2,6.9-33.6c4.6-9.5,11-16.8,19-21.8c8-5.1,17.1-7.6,27.2-7.6C774.1,352.9,782.2,355.1,788.9,359.3z M757.3,393.9
			c-4.9,5.3-7.4,12.7-7.4,22.1c0,9.4,2.5,16.8,7.4,22.1c4.9,5.3,11.4,7.9,19.5,7.9c7.9,0,14.4-2.7,19.5-8.2
			c5.1-5.4,7.6-12.7,7.6-21.8c0-9.3-2.5-16.6-7.6-21.9c-5.1-5.4-11.6-8.1-19.5-8.1C768.7,386,762.2,388.7,757.3,393.9z"/>
		<path class="st0" d="M963,366c10.7,8.8,17.5,20.8,20.3,36.1h-39.9c-1.2-5.3-3.6-9.4-7.3-12.4c-3.7-2.9-8.3-4.4-13.9-4.4
			c-6.6,0-12.1,2.6-16.3,7.8c-4.3,5.2-6.4,12.8-6.4,22.8c0,10,2.1,17.6,6.4,22.8c4.3,5.2,9.7,7.8,16.3,7.8c5.6,0,10.2-1.5,13.9-4.4
			c3.7-2.9,6.1-7.1,7.3-12.4h39.9c-2.8,15.3-9.6,27.3-20.3,36.1c-10.7,8.8-24,13.1-39.9,13.1c-12.1,0-22.8-2.5-32.1-7.6
			c-9.3-5.1-16.7-12.4-21.9-21.9c-5.3-9.6-7.9-20.7-7.9-33.5c0-12.9,2.6-24.2,7.8-33.6c5.2-9.5,12.5-16.8,21.9-21.8
			c9.4-5.1,20.1-7.6,32.2-7.6C938.9,352.9,952.2,357.3,963,366z"/>
		<path class="st0" d="M1073.9,359.3c6.8,4.3,11.8,10.1,15,17.4v-22.3h37.5v123.1h-37.5v-22.3c-3.2,7.4-8.2,13.2-15,17.4
			c-6.8,4.3-14.9,6.4-24.3,6.4c-10.1,0-19.2-2.5-27.2-7.6c-8-5.1-14.3-12.4-19-21.9c-4.6-9.6-6.9-20.7-6.9-33.5
			c0-12.9,2.3-24.2,6.9-33.6c4.6-9.5,11-16.8,19-21.8c8-5.1,17.1-7.6,27.2-7.6C1059.1,352.9,1067.2,355.1,1073.9,359.3z
			 M1042.3,393.9c-4.9,5.3-7.4,12.7-7.4,22.1c0,9.4,2.5,16.8,7.4,22.1c4.9,5.3,11.4,7.9,19.5,7.9c7.9,0,14.4-2.7,19.5-8.2
			c5.1-5.4,7.6-12.7,7.6-21.8c0-9.3-2.5-16.6-7.6-21.9c-5.1-5.4-11.6-8.1-19.5-8.1C1053.7,386,1047.2,388.7,1042.3,393.9z"/>
		<path class="st0" d="M1264.2,367.3c8.3,9.4,12.5,22.4,12.5,38.8v71.5h-37.7v-67.1c0-8.2-2.2-14.7-6.5-19.3
			c-4.3-4.6-10.1-6.9-17.3-6.9c-7.6,0-13.7,2.4-18.2,7.3c-4.5,4.9-6.7,11.8-6.7,20.7v65.3h-37.7V354.5h37.7V377
			c3.5-7.4,8.8-13.2,15.8-17.4c7-4.3,15.2-6.4,24.6-6.4C1244.7,353.1,1255.9,357.9,1264.2,367.3z"/>
		<path class="st0" d="M1397.1,366c10.7,8.8,17.5,20.8,20.3,36.1h-39.9c-1.2-5.3-3.6-9.4-7.3-12.4c-3.7-2.9-8.3-4.4-13.9-4.4
			c-6.6,0-12.1,2.6-16.3,7.8c-4.3,5.2-6.4,12.8-6.4,22.8c0,10,2.1,17.6,6.4,22.8c4.3,5.2,9.7,7.8,16.3,7.8c5.6,0,10.2-1.5,13.9-4.4
			c3.7-2.9,6.1-7.1,7.3-12.4h39.9c-2.8,15.3-9.6,27.3-20.3,36.1c-10.7,8.8-24,13.1-39.9,13.1c-12.1,0-22.8-2.5-32.1-7.6
			c-9.3-5.1-16.7-12.4-21.9-21.9c-5.3-9.6-7.9-20.7-7.9-33.5c0-12.9,2.6-24.2,7.8-33.6c5.2-9.5,12.5-16.8,22-21.8
			c9.4-5.1,20.1-7.6,32.2-7.6C1373,352.9,1386.4,357.3,1397.1,366z"/>
		<path class="st0" d="M1552.8,422.8h-85.4c0.4,9.3,2.8,15.9,7.1,20c4.3,4,9.7,6.1,16.3,6.1c5.6,0,10.2-1.4,13.9-4.2
			c3.7-2.8,6.1-6.4,7.3-10.8h39.9c-1.6,8.7-5.2,16.4-10.6,23.3c-5.4,6.8-12.4,12.2-20.7,16.1c-8.4,3.9-17.7,5.8-28,5.8
			c-12.1,0-22.8-2.5-32.1-7.6c-9.3-5.1-16.7-12.4-21.9-21.9c-5.3-9.6-7.9-20.7-7.9-33.5c0-12.9,2.6-24.2,7.8-33.6
			c5.2-9.5,12.5-16.8,21.9-21.8c9.4-5.1,20.1-7.6,32.2-7.6c12.2,0,22.9,2.5,32.2,7.5c9.3,5,16.4,12,21.5,21.1
			c5.1,9,7.6,19.4,7.6,31.2C1553.9,415.8,1553.6,419.2,1552.8,422.8z M1509.3,388.8c-4.5-4-10-6.1-16.7-6.1
			c-6.9,0-12.6,2.1-17.2,6.2c-4.6,4.1-7.1,10.1-7.7,18.1h48.1C1515.9,398.9,1513.7,392.8,1509.3,388.8z"/>
		<path class="st0" d="M1655.7,364.6c9.3,7.8,15.2,18.1,17.5,30.9H1638c-1-5-3.3-8.9-6.9-11.8c-3.6-2.9-8.1-4.3-13.6-4.3
			c-4.3,0-7.5,0.9-9.7,2.8c-2.2,1.8-3.3,4.4-3.3,7.8c0,3.8,2,6.7,6.1,8.6c4,1.9,10.4,3.8,19.1,5.7c9.4,2.2,17.1,4.4,23.2,6.7
			c6,2.3,11.3,6,15.7,11.1c4.4,5.1,6.6,12.1,6.6,20.7c0,7.1-1.9,13.3-5.7,18.8c-3.8,5.4-9.3,9.7-16.5,12.8
			c-7.2,3.1-15.7,4.6-25.6,4.6c-16.6,0-29.9-3.7-39.9-11c-10-7.4-16.1-17.9-18.3-31.5h36.4c0.6,5.3,2.8,9.3,6.7,12.1
			c3.9,2.8,8.9,4.2,15.1,4.2c4.3,0,7.5-1,9.7-3c2.2-2,3.3-4.6,3.3-7.8c0-4.3-2-7.3-6.1-9.2c-4-1.8-10.6-3.8-19.7-5.8
			c-9.1-1.9-16.6-4-22.5-6.2c-5.9-2.2-11-5.8-15.2-10.7c-4.3-4.9-6.4-11.7-6.4-20.2c0-11,4.2-20,12.6-26.8
			c8.4-6.8,20.2-10.3,35.5-10.3C1633.9,352.9,1646.4,356.8,1655.7,364.6z"/>
	</g>
</g>
</svg>
