<?xml version="1.0" encoding="utf-8"?>
<!-- Generator: Adobe Illustrator 24.3.0, SVG Export Plug-In . SVG Version: 6.00 Build 0)  -->
<svg version="1.1" id="Calque_1" xmlns="http://www.w3.org/2000/svg" xmlns:xlink="http://www.w3.org/1999/xlink" x="0px" y="0px"
	 viewBox="0 0 1722.9 514.4" style="enable-background:new 0 0 1722.9 514.4;" xml:space="preserve">
<style type="text/css">
	.st0{fill:#FED05C;}
	.st1{fill:#FEFEFE;}
	.st2{fill:#F2705A;}
	.st3{fill:#415A6B;}
	.st4{fill:#F6B54C;}
	.st5{fill:#344A5E;}
	.st6{fill:#EF5540;}
	.st7{fill:#89D6F7;}
	.st8{fill:#4EAE33;}
</style>
<g>
	<path class="st0" d="M147.5,461.9c-12.2,0-24.5,0-36.7,0c-1.4-1.1-1.7-2.6-1.7-4.3c-0.1-2.7-0.1-5.3-0.1-8c0-42.6,0-85.2,0-127.8
		c0-2.8-0.1-5.6,0.2-8.3c0.7-3,3-4.9,5.1-7c52.6-52.7,105.2-105.3,157.9-157.9c4.8-4.8,6.1-4.8,11.1,0.2
		c52.6,52.5,105.1,105.1,157.6,157.7c2,2,4.3,4,5.1,7c0.2,1.7,0.2,3.5,0.2,5.2c0,45.3,0,90.5,0,135.8c0,2.6,0.7,5.4-1.7,7.5
		c-65.4,0-130.9,0-196.3,0c-2.2-1.8-1.7-4.3-1.7-6.7c0-28.6,0.1-57.2-0.1-85.8c-0.1-10.3-1.2-20.4-6.5-29.6
		c-8.4-14.7-20.9-23-37.7-24.7c-24-2.6-45.3,13.8-51.2,35c-1.1,4.1-1.7,8.3-1.7,12.6c0,30.8,0,61.7,0,92.5
		C149.2,457.6,149.7,460.1,147.5,461.9z"/>
	<path class="st1" d="M110.9,311.8c0,11.5-0.1,23.1-0.1,34.6c0,38.5,0,77,0.1,115.4c-11.6,0-23.1,0-34.7,0c-1.7,0-2.4-0.3-2-2
		c0.1-0.6,0-1.3,0-2c0-133.9,0-267.8-0.1-401.7c0-3.3,0.7-3.8,3.9-3.8c134,0.1,268.1,0.1,402.1,0c3.2,0,3.6,0.9,3.6,3.8
		c-0.1,65.6-0.1,131.1-0.1,196.7c-2.1,0.1-2.7-1.5-3.1-3c-1.3-4.2-3.9-7.5-6.9-10.5c-14-14-27.9-28.1-42.1-42
		c-3.6-3.5-5.1-7.2-5-12.3c0.2-21.8,0.1-43.6,0.1-65.4c0-5.7,0.7-6.4,6.4-6.6c2.3-0.1,4.5,0,6.8,0c2.7,0,3.8-1.3,3.8-3.9
		c0-11,0-22.1,0-33.1c0-3.5-1.9-4.2-4.8-4.2c-12.2,0-24.5,0-36.7,0c-10.8,0-21.5,0-32.3,0c-4.3,0-4.9,0.6-4.9,4.9
		c-0.1,10.5-0.1,21,0,31.5c0,4.2,0.6,4.7,4.9,4.8c2.4,0.1,4.8,0,7.2,0.1c1.6,0,3.2,0.2,4.3,1.6c0.6,0.9,1,1.9,1,3
		c0,8.2,0.5,16.3-0.3,24.5c-1,2.2-2.5,2-4.2,0.9c-1.6-1-2.8-2.5-4.1-3.8c-25.3-25.3-50.6-50.5-75.9-75.9c-7.8-7.8-16.8-10.2-27.4-7
		c-4.4,1.3-7.7,4.1-10.8,7.2c-36.9,37-73.9,73.9-110.8,110.8c-1.2,1.2-2.4,2.5-3.8,3.6c-4.3,4.9-9,9.4-13.7,13.9
		c-16.1,15.6-31.2,32.2-47.1,48c-8,7.9-9.9,19.5-5.2,29.4c4.5,9.5,14.8,15,26,13.8c2-0.2,3.9-0.8,5.8,0.5c1.5,1.2,1.6,2.9,1.6,4.7
		c0.1,6,0.1,12.1,0,18.1C112.5,308.3,111.8,310.1,110.9,311.8z"/>
	<path class="st2" d="M380.5,114.8c-4.8,0-9.6-0.2-14.4-0.1c-2.5,0.1-3.5-0.6-3.5-3.3c0.1-12.6,0.1-25.3,0-37.9
		c0-2.8,1.1-3.3,3.6-3.3c25.3,0.1,50.5,0.1,75.8,0c2.3,0,3.3,0.4,3.3,3.1c-0.1,12.8-0.1,25.5,0,38.3c0,2.4-0.7,3.3-3.2,3.2
		c-3.8-0.2-7.7,0-11.6-0.1c-2.1-0.1-3.1,0.5-3.1,2.8c0.1,23.7,0.1,47.3,0,71c0,2.2,1.3,3.3,2.6,4.7c12.5,12.5,24.9,25.1,37.5,37.5
		c6.6,6.5,13.4,12.8,15.9,22.2c0,3.5,0,6.9,0,10.4c-0.8,8.3-4.6,14.9-11.8,19.2c-8.7,5.1-17.8,5.7-27,1.3c-5.2-2.1-9.1-5.9-12.9-9.8
		c-49-48.9-97.9-97.9-146.9-146.9c-6.3-6.3-4.9-6.2-11.2,0c-28.3,28.3-56.6,56.6-84.9,84.8c-1.8,1.8-3.3,3.9-6.1,4.3
		c-1.7-0.1-2.9-1.1-4.1-2.2c-10.8-10.7-21.6-21.5-32.3-32.3c-1.2-1.2-2.6-2.4-1.9-4.5c0.7-0.8,1.3-1.6,2.1-2.4
		c37.2-37.3,74.3-74.7,111.5-112c10.1-10.2,23.2-12.2,34.9-5.6c2.8,1.6,5.1,3.8,7.4,6.1c25.7,25.7,51.3,51.4,77,77c1,1,2.1,2,3.2,3
		c2.3-0.1,3.6,1.6,4.9,3c12.1,12.1,24.2,24.2,36.4,36.3c0.9,0.9,1.6,2.1,3,2.4c0.7-1,0.4-2.1,0.4-3.1c0-19.9,0-39.8,0-59.8
		c0-5.4-0.2-5.6-5.7-5.6c-11.2,0-22.3,0-33.5,0C384,116.4,382,116.5,380.5,114.8z"/>
	<path class="st3" d="M147.5,461.9c-0.1-0.4-0.2-0.8-0.2-1.2c0-33.4-0.3-66.7,0.2-100.1c0.4-26.2,23.1-47.5,49.7-47.7
		c26.1-0.2,49.1,20.7,50,46.6c1.2,32.4,0.2,64.9,0.4,97.3c0,1.7,0.2,3.4,0.3,5.1C214.6,461.9,181,461.9,147.5,461.9z"/>
	<path class="st1" d="M444.4,282.3c7.1,2.6,14.3,3.6,21.6,0.9c8-2.9,13.1-8.5,15.9-16.5c0.4-1.2,0.3-2.6,1.6-3.5
		c0,65.2,0,130.4,0.1,195.5c0,2.7-0.5,3.3-3.3,3.3c-12-0.2-23.9-0.1-35.9-0.1c0-48.3,0-96.6,0-144.9c0-1.7-0.1-3.4-0.1-5.2
		c-1.2-2.3-1.6-4.7-1.6-7.2c0.1-5.8,0-11.6,0.1-17.4C442.7,285.4,442.5,283.5,444.4,282.3z"/>
	<path class="st4" d="M444.4,282.3c-0.1,9.8-0.1,19.7-0.2,29.5c-1.3-1.2-2.6-2.3-3.8-3.5c-53-53-106.1-106-159.1-159.1
		c-3.8-3.8-3.8-3.8-7.6,0.1c-53,53-106,106.1-159.1,159.1c-1.2,1.2-2.5,2.3-3.8,3.5c-0.1-8.1-0.1-16.2-0.2-24.3c0-1.4,0.6-3-1-4
		c0-1.6,1.3-1.9,2.3-2.3c4.7-2.1,8.4-5.5,12-9c17.7-17.7,35.4-35.4,53.1-53.1c1.6-1.6,3.1-3.3,5.5-3.7c1.3-1.1,2.6-2.2,3.8-3.4
		c29.8-29.8,59.6-59.5,89.3-89.4c2.7-2.7,4.1-2.8,6.9-0.1c49.8,50,99.7,99.9,149.6,149.8C436,275.9,439.9,279.4,444.4,282.3z"/>
	<path class="st5" d="M343.1,312.9c20.3,0,40.7,0.1,61-0.1c3.3,0,4.5,0.6,4.5,4.3c-0.2,35.5-0.2,71,0,106.5c0,3.6-1,4.3-4.4,4.3
		c-40.8-0.1-81.6-0.1-122.4,0c-3.1,0-4.3-0.5-4.3-4c0.1-35.6,0.1-71.2,0-106.9c0-3.3,0.9-4.2,4.2-4.2
		C302.2,312.9,322.6,312.9,343.1,312.9z"/>
	<path class="st2" d="M182.6,215.3c-0.9,1-1.7,2.1-2.6,3c-18.8,18.8-37.6,37.7-56.5,56.5c-4,3.9-8.2,7.5-13.9,8.8
		c-11.7,3.4-23.8-0.7-30.2-10.3c-6.7-10-6.1-23.7,2.1-32.9c7.1-7.9,14.8-15.2,22.3-22.8c13.5-13.5,27-27,40.5-40.5
		c11.7,11.8,23.3,23.6,35,35.3C180.3,213.4,181.5,214.3,182.6,215.3z"/>
	<path class="st6" d="M380.5,114.8c14.1,0,28.2,0,42.3-0.1c2.8,0,4.1,0.6,4.1,3.7c-0.1,22.9-0.1,45.7-0.1,68.6
		c0,0.6-0.1,1.2-0.2,1.8c-1.2,0.3-1.6-0.6-2.2-1.1c-14.2-14.2-28.4-28.4-42.6-42.6c-0.6-0.6-1-1.2-1.5-1.9
		C380.4,133.7,380.5,124.2,380.5,114.8z"/>
	<path class="st7" d="M336.2,370.4c0,13.3-0.1,26.6,0.1,39.9c0,3.2-0.9,4-4,4c-12.4-0.2-24.7-0.1-37.1,0c-3,0-4.1-0.6-4.1-3.9
		c0.1-26.7,0.1-53.4,0-80.1c0-2.9,0.7-3.9,3.7-3.8c12.5,0.2,25,0.2,37.5,0c3.3,0,4,1.1,4,4.1C336.1,343.8,336.2,357.1,336.2,370.4z"
		/>
	<path class="st7" d="M395,370.4c0,13.4-0.1,26.8,0.1,40.3c0,2.7-0.7,3.6-3.5,3.6c-12.6-0.1-25.2-0.1-37.9,0c-2.6,0-3.8-0.5-3.8-3.4
		c0.1-27,0.1-53.9,0-80.9c0-2.6,0.8-3.5,3.4-3.4c12.8,0.1,25.5,0.1,38.3,0c2.9,0,3.5,1.1,3.5,3.7C394.9,343.5,395,357,395,370.4z"/>
</g>
<g>
	<g>
		<path class="st3" d="M713,94.8v134h-32.6V145l-29,83.8H623l-29.2-84v84h-32.6v-134h39.9l36.5,93.4l35.7-93.4
			C673.3,94.8,713,94.8,713,94.8z"/>
		<path class="st3" d="M768.1,93.8v135h-32.6v-135H768.1z"/>
		<path class="st3" d="M942.4,94.8v134h-32.6V145l-29,83.8h-28.3l-29.2-84v84h-32.6v-134h39.9l36.5,93.4l35.7-93.4
			C902.8,94.8,942.4,94.8,942.4,94.8z"/>
		<path class="st3" d="M1063.7,100.6c10.4,5.9,18.5,14.1,24.5,24.6s9,22.4,9,35.6s-3,25.1-9.1,35.7c-6,10.6-14.3,18.8-24.6,24.7
			c-10.4,5.9-21.9,8.9-34.5,8.9s-24.1-3-34.5-8.9s-18.6-14.2-24.6-24.7c-6-10.6-9.1-22.5-9.1-35.7s3-25.1,9.1-35.6
			c6-10.5,14.3-18.7,24.6-24.6c10.4-5.9,21.9-8.9,34.5-8.9C1041.8,91.7,1053.4,94.7,1063.7,100.6z M1003.6,132.5
			c-6.3,6.9-9.5,16.4-9.5,28.3c0,11.8,3.2,21.3,9.5,28.3s14.8,10.5,25.5,10.5c10.6,0,19-3.5,25.4-10.5s9.5-16.4,9.5-28.3
			c0-11.8-3.2-21.3-9.5-28.3c-6.3-7-14.8-10.5-25.5-10.5C1018.4,122.1,1009.9,125.5,1003.6,132.5z"/>
		<path class="st3" d="M1215.9,171.1c4.8,6,7.2,12.9,7.2,20.8c0,11.6-3.9,20.6-11.6,27.1s-18.7,9.7-33.1,9.7h-62.8v-135h61.3
			c13.7,0,24.4,3,31.9,9s11.3,14.5,11.3,25.6c0,8.1-2.2,14.9-6.5,20.3c-4.3,5.4-10,8.9-17,10.6
			C1204.7,161.2,1211.1,165.1,1215.9,171.1z M1148.2,149h21.4c11.3,0,17-4.8,17-14.5s-5.8-14.5-17.4-14.5h-21V149z M1189.6,187.4
			c0-4.8-1.6-8.6-4.8-11.4c-3.2-2.7-7.7-4.1-13.6-4.1h-23.1v30.4h23.3C1183.6,202.2,1189.6,197.3,1189.6,187.4z"/>
		<path class="st3" d="M1272.9,93.8v135h-32.6v-135H1272.9z"/>
		<path class="st3" d="M1328,203.8h43.5v25h-76.2v-135h32.6L1328,203.8L1328,203.8z"/>
		<path class="st3" d="M1419.3,93.8v135h-32.6v-135H1419.3z"/>
		<path class="st3" d="M1474.5,119.8V148h45.6v24.6h-45.6v30h51.4v26.2h-84v-135h84v26H1474.5z"/>
		<path class="st3" d="M1613.6,228.8l-29.2-51h-7.4v51h-32.6v-135h55.7c10.7,0,19.7,1.8,27.1,5.5s12.9,8.8,16.6,15.2
			c3.7,6.4,5.5,13.8,5.5,22c0,9.8-2.7,18.1-8.1,25s-13.3,11.6-23.6,14.1l32.1,53.1L1613.6,228.8L1613.6,228.8z M1577,155.5h20.2
			c6.5,0,11.3-1.4,14.3-4.3c3.1-2.9,4.6-7.1,4.6-12.7c0-5.3-1.6-9.5-4.7-12.6c-3.1-3.1-7.9-4.6-14.2-4.6H1577V155.5z"/>
	</g>
	<g>
		<path class="st8" d="M590.6,273.7v147.5h-29.5V273.7H590.6z"/>
		<path class="st8" d="M776.4,275.4v145.9h-29.3V319.5l-37.4,101.8h-25.5l-37.4-101.4v101.4h-29.5V275.4H653l44.3,109.7l43.5-109.7
			L776.4,275.4L776.4,275.4z"/>
		<path class="st8" d="M962.2,275.4v145.9h-29.3V319.5l-37.4,101.8H870l-37.4-101.4v101.4h-29.5V275.4h35.7l44.3,109.7l43.5-109.7
			L962.2,275.4L962.2,275.4z"/>
		<path class="st8" d="M1095.6,281.2c11.2,6.4,20.1,15.4,26.5,26.9c6.5,11.5,9.7,24.5,9.7,39s-3.2,27.5-9.7,39.1s-15.3,20.6-26.5,27
			s-23.7,9.6-37.5,9.6s-26.3-3.2-37.5-9.6c-11.2-6.4-20.1-15.4-26.5-27c-6.5-11.6-9.7-24.6-9.7-39.1s3.2-27.5,9.7-39
			s15.3-20.4,26.5-26.9c11.2-6.4,23.7-9.6,37.5-9.6S1084.4,274.8,1095.6,281.2z M1035.3,304.6c-6.6,3.9-11.7,9.5-15.4,16.8
			s-5.5,15.8-5.5,25.6c0,9.8,1.8,18.3,5.5,25.6c3.7,7.3,8.8,12.9,15.4,16.8c6.5,3.9,14.1,5.9,22.8,5.9c8.6,0,16.2-1.9,22.8-5.9
			c6.5-3.9,11.7-9.5,15.4-16.8c3.7-7.3,5.5-15.8,5.5-25.6c0-9.7-1.8-18.3-5.5-25.6c-3.7-7.3-8.8-12.9-15.4-16.8s-14.1-5.9-22.8-5.9
			C1049.5,298.8,1041.9,300.7,1035.3,304.6z"/>
		<path class="st8" d="M1279,421.2h-29.5l-66-100.3v100.3H1154V273.7h29.5l66,101.1V273.7h29.5V421.2z"/>
		<path class="st8" d="M1335.2,297.1v38.2h52.2v22.6h-52.2v39.7h58.5v23.6h-88V273.7h88v23.4H1335.2z"/>
		<path class="st8" d="M1443.9,273.7v86.5c0,11.6,2.5,20.2,7.6,26s12.4,8.7,22,8.7c9.5,0,16.8-2.9,21.8-8.7c5.1-5.8,7.6-14.5,7.6-26
			v-86.5h29.3v86.5c0,13.7-2.5,25.2-7.6,34.6s-12.1,16.4-21.1,21s-19.2,6.9-30.6,6.9c-17.7,0-31.8-5.3-42.4-15.9
			s-15.9-26.1-15.9-46.6v-86.5H1443.9z"/>
		<path class="st8" d="M1649.7,273.7v23.4h-62.1v39.5h49.7v22.6h-49.7v62.1h-29.5V273.7H1649.7z"/>
	</g>
</g>
</svg>
