<?xml version="1.0" encoding="utf-8"?>
<!-- Generator: Adobe Illustrator 24.3.0, SVG Export Plug-In . SVG Version: 6.00 Build 0)  -->
<svg version="1.1" id="Calque_1" xmlns="http://www.w3.org/2000/svg" xmlns:xlink="http://www.w3.org/1999/xlink" x="0px" y="0px"
	 viewBox="0 0 1710.6 514.4" style="enable-background:new 0 0 1710.6 514.4;" xml:space="preserve">
<style type="text/css">
	.st0{fill:#E83C5C;}
	.st1{enable-background:new    ;}
</style>
<path class="st0" d="M271.3,168.4v187h38.1v-187H271.3z M288.4,197.4h-8.1v-8.1h8.1V197.4z M288.4,185.6h-8.1v-8.1h8.1V185.6z
	 M300.2,197.4h-8.1v-8.1h8.1V197.4z M300.2,185.6h-8.1v-8.1h8.1V185.6z"/>
<path class="st0" d="M418.4,241.1c0,40.1-32.5,72.7-72.6,72.7c0,0,0,0,0,0h-26.2v-37.2h27.2c19.8,0,35.9-16.1,35.9-35.9
	c0-19.8-16.1-35.9-35.9-35.9h-27.2v-36.4h26.2C385.9,168.4,418.4,201,418.4,241.1C418.4,241.1,418.4,241.1,418.4,241.1L418.4,241.1z
	"/>
<polygon class="st0" points="300.2,159 300.2,162.4 265.3,162.4 265.3,197.3 261.8,197.3 261.8,159 "/>
<path class="st0" d="M182,318.4c-2.3,2.4-4,5.2-5.3,8.2c2-1,3.8-2.3,5.5-3.7c3-2.5,6.6-4.1,10.5-4.5c1.1-0.1,2.2-0.2,3.3-0.1
	c3.6,0.1,7.2,0.1,10.8,0.1h41c1.4,0,2.5,1.1,2.5,2.5l0,0v34.5H120.8l0.2-2.7c0.5-5.7,1.7-11.2,3.5-16.6c3.8-12,10.5-23.1,21.1-34.9
	c9.9-11,20.9-21.2,31.6-31l1.4-1.3c1-0.9,2-1.8,2.9-2.7c7.2-6.6,14.7-13.4,20.7-21.2c6.4-8.2,8.8-17,7.2-26
	c-0.5-3.2-1.7-6.3-3.6-8.9c-3.4-4.7-8.9-7.3-16.1-7.6c-3.1-0.2-6.2,0.2-9.2,1c2.6-2.9,4.9-5.5,7.2-8.2c-7.9,3.3-14.4,9.2-18.4,16.7
	c0,0.1,0,0.1-0.1,0.1c-0.3,0.5-0.5,1-0.8,1.5c-0.1,0.2-0.2,0.4-0.3,0.5c-1,2.4-1.7,4.8-2.1,7.4c-0.3,1.5-0.5,3-0.7,4.6
	c-0.1,0.8-0.2,1.6-0.3,2.4l-0.4,2.4l-37.6-3.6c-1.4-0.1-2.4-1.4-2.3-2.7c0-0.1,0-0.1,0-0.2l0,0c0.2-1.1,0.4-2.3,0.6-3.4
	c0.4-2.5,0.8-4.8,1.3-7.2c3-13.2,8.1-22.6,16.2-29.7c8-7.1,18.1-11.8,29.9-13.8c14.7-2.6,28.1-1.9,40.8,2
	c23.1,7.2,37.5,27.4,36.8,51.3c-0.5,14.4-5.8,28.1-16.2,42.1c-6.6,8.9-14.8,16.4-22.6,23.7l-0.7,0.6c-2.2,2-4.3,4-6.5,6
	c-3.2,3-6.5,6-9.8,9c-2.2,2-4.4,4.1-6.5,6.2C186,313.5,184,315.8,182,318.4C182,318.3,182,318.4,182,318.4z"/>
<path class="st0" d="M511.1,257.2c0,125.4-110.5,227.1-247.2,228.1c125.4-12.7,220.9-110,220.9-228.1c0-118.2-95.6-215.5-221-228.1
	C400.6,30.1,511.1,131.8,511.1,257.2z"/>
<path class="st0" d="M267.2,467.6c50.3,0.1,99-18,137.2-50.8c-41.3,40.1-96.7,62.5-154.3,62.4c-120.7,0-218.9-96.3-221.9-216.2
	c0-1,0-1.9-0.1-2.9c0-1,0-1.9,0-2.9c0-1,0-1.9,0-2.9c0-1,0-1.9,0.1-2.9c3-119.9,101.2-216.2,221.9-216.2
	c57.6-0.1,112.9,22.3,154.3,62.4c-38.1-32.9-86.8-50.9-137.2-50.8C151,46.8,56.8,141,56.8,257.2C56.8,373.4,151,467.6,267.2,467.6z"
	/>
<g>
	<g class="st1">
		<path class="st0" d="M682.8,90.1c11.7,9.4,19.2,22,22.7,38h-35.8c-2.6-6.5-6.7-11.5-12.2-15.2c-5.5-3.7-12-5.5-19.5-5.5
			c-9.9,0-17.9,3.6-24,10.9c-6.1,7.3-9.1,17-9.1,29.1c0,12.1,3,21.8,9.1,29c6.1,7.2,14.1,10.8,24,10.8c7.5,0,14-1.8,19.5-5.5
			c5.5-3.7,9.5-8.7,12.2-15h35.8c-3.4,15.8-11,28.5-22.7,37.9c-11.7,9.4-26.4,14.2-44.2,14.2c-13.6,0-25.5-3-35.8-9
			c-10.3-6-18.2-14.4-23.9-25.2c-5.6-10.8-8.4-23.2-8.4-37c0-13.9,2.8-26.2,8.4-37c5.6-10.8,13.6-19.2,23.9-25.2
			c10.3-6,22.2-9,35.8-9C656.4,76.1,671.1,80.7,682.8,90.1z"/>
		<path class="st0" d="M805.5,112.4c8.6,4.6,15.4,11.1,20.4,19.7c4.9,8.6,7.4,18.6,7.4,30.1c0,11.5-2.5,21.5-7.4,30.1
			c-4.9,8.6-11.7,15.1-20.4,19.7c-8.6,4.6-18.4,6.8-29.4,6.8c-11,0-20.8-2.3-29.5-6.8c-8.7-4.6-15.5-11.1-20.5-19.7
			c-4.9-8.6-7.4-18.6-7.4-30.1c0-11.5,2.5-21.5,7.4-30.1c4.9-8.6,11.8-15.1,20.5-19.7s18.5-6.8,29.5-6.8
			C787.1,105.6,796.9,107.8,805.5,112.4z M759.8,141.9c-4.4,4.7-6.6,11.5-6.6,20.3c0,8.8,2.2,15.6,6.6,20.2
			c4.4,4.6,9.9,6.9,16.3,6.9c6.5,0,11.9-2.3,16.2-6.9c4.4-4.6,6.5-11.3,6.5-20.2c0-8.8-2.2-15.6-6.5-20.3c-4.4-4.7-9.8-7-16.2-7
			C769.7,134.9,764.2,137.2,759.8,141.9z"/>
		<path class="st0" d="M951.2,118.4c7.5,8.4,11.2,20.1,11.2,34.8v64.1h-33.8v-60.2c0-7.4-1.9-13.2-5.8-17.3
			c-3.9-4.2-9.1-6.2-15.5-6.2c-6.9,0-12.3,2.2-16.3,6.5c-4,4.4-6,10.6-6,18.6v58.6H851V106.9h33.9v20.2c3.2-6.6,7.9-11.8,14.2-15.6
			c6.3-3.8,13.6-5.7,22.1-5.7C933.7,105.8,943.8,110,951.2,118.4z"/>
		<path class="st0" d="M1058.5,116c8.4,7,13.6,16.2,15.7,27.7h-31.7c-0.9-4.5-3-8-6.2-10.6c-3.2-2.6-7.3-3.9-12.2-3.9
			c-3.8,0-6.7,0.8-8.7,2.5c-2,1.7-3,4-3,7c0,3.4,1.8,6,5.4,7.7c3.6,1.7,9.3,3.4,17.1,5.1c8.4,2,15.4,4,20.8,6
			c5.4,2,10.1,5.4,14.1,10c4,4.6,5.9,10.8,5.9,18.6c0,6.3-1.7,11.9-5.1,16.8c-3.4,4.9-8.4,8.7-14.8,11.5c-6.5,2.8-14.1,4.2-23,4.2
			c-14.9,0-26.9-3.3-35.8-9.9c-9-6.6-14.5-16-16.4-28.3h32.7c0.5,4.8,2.5,8.4,6,10.9c3.5,2.5,8,3.8,13.6,3.8c3.8,0,6.7-0.9,8.7-2.7
			c2-1.8,3-4.1,3-7c0-3.8-1.8-6.6-5.4-8.2c-3.6-1.6-9.5-3.4-17.7-5.2c-8.2-1.7-14.9-3.6-20.2-5.5c-5.3-2-9.8-5.2-13.7-9.6
			c-3.8-4.4-5.7-10.5-5.7-18.1c0-9.9,3.8-17.9,11.3-24.1c7.5-6.1,18.1-9.2,31.9-9.2C1039,105.6,1050.1,109.1,1058.5,116z"/>
		<path class="st0" d="M1198.6,168.3H1122c0.4,8.3,2.5,14.3,6.3,17.9c3.8,3.6,8.7,5.4,14.6,5.4c5,0,9.2-1.3,12.5-3.8
			c3.3-2.5,5.5-5.7,6.5-9.7h35.8c-1.5,7.8-4.6,14.7-9.5,20.9c-4.9,6.1-11.1,11-18.6,14.5c-7.5,3.5-15.9,5.2-25.1,5.2
			c-10.8,0-20.4-2.3-28.8-6.8c-8.4-4.6-14.9-11.1-19.7-19.7c-4.8-8.6-7.1-18.6-7.1-30.1c0-11.6,2.3-21.7,7-30.2
			c4.7-8.5,11.2-15,19.7-19.6c8.4-4.6,18.1-6.8,28.9-6.8c11,0,20.6,2.2,28.9,6.7c8.3,4.5,14.7,10.8,19.3,18.9
			c4.6,8.1,6.8,17.5,6.8,28C1199.6,162,1199.2,165,1198.6,168.3z M1159.5,137.7c-4-3.6-9-5.4-14.9-5.4c-6.2,0-11.4,1.8-15.4,5.5
			c-4.1,3.7-6.4,9.1-6.9,16.2h43.2C1165.4,146.8,1163.5,141.4,1159.5,137.7z"/>
		<path class="st0" d="M1219.6,63.1c3.7-3.4,8.6-5,14.6-5c6.1,0,11,1.7,14.6,5c3.7,3.4,5.5,7.6,5.5,12.8c0,5-1.8,9.2-5.5,12.6
			c-3.7,3.4-8.6,5-14.6,5c-6.1,0-11-1.7-14.6-5c-3.7-3.4-5.5-7.6-5.5-12.6C1214,70.7,1215.9,66.5,1219.6,63.1z M1251,106.9v110.5
			h-33.9V106.9H1251z"/>
		<path class="st0" d="M1308.2,70.9v146.5h-33.9V70.9H1308.2z"/>
		<path class="st0" d="M1405.3,116c8.4,7,13.6,16.2,15.7,27.7h-31.7c-0.9-4.5-3-8-6.2-10.6c-3.2-2.6-7.3-3.9-12.2-3.9
			c-3.8,0-6.7,0.8-8.7,2.5c-2,1.7-3,4-3,7c0,3.4,1.8,6,5.4,7.7c3.6,1.7,9.3,3.4,17.1,5.1c8.4,2,15.4,4,20.8,6
			c5.4,2,10.1,5.4,14.1,10c4,4.6,5.9,10.8,5.9,18.6c0,6.3-1.7,11.9-5.1,16.8c-3.4,4.9-8.4,8.7-14.8,11.5c-6.5,2.8-14.1,4.2-23,4.2
			c-14.9,0-26.9-3.3-35.8-9.9c-9-6.6-14.5-16-16.4-28.3h32.7c0.5,4.8,2.5,8.4,6,10.9c3.5,2.5,8,3.8,13.6,3.8c3.8,0,6.7-0.9,8.7-2.7
			c2-1.8,3-4.1,3-7c0-3.8-1.8-6.6-5.4-8.2c-3.6-1.6-9.5-3.4-17.7-5.2c-8.2-1.7-14.9-3.6-20.2-5.5c-5.3-2-9.8-5.2-13.7-9.6
			c-3.8-4.4-5.7-10.5-5.7-18.1c0-9.9,3.8-17.9,11.3-24.1c7.5-6.1,18.1-9.2,31.9-9.2C1385.8,105.6,1396.9,109.1,1405.3,116z"/>
	</g>
	<g class="st1">
		<path class="st0" d="M608.5,315v140h-33.8V315H608.5z"/>
		<path class="st0" d="M807,355.9c7.8,8.4,11.7,20,11.7,34.9v64.1h-33.7v-60.2c0-7-1.9-12.4-5.6-16.3c-3.8-3.9-8.9-5.8-15.3-5.8
			c-6.7,0-12,2.1-15.9,6.2c-3.9,4.2-5.8,10-5.8,17.5v58.6h-33.8v-60.2c0-7-1.8-12.4-5.5-16.3c-3.7-3.9-8.8-5.8-15.2-5.8
			c-6.7,0-12.1,2-16,6.1c-4,4.1-5.9,10-5.9,17.6v58.6h-33.9V344.5h33.9v18.8c2.9-6.2,7.4-11.1,13.4-14.6c6-3.6,13-5.3,21.1-5.3
			c8.4,0,15.9,1.9,22.4,5.8c6.5,3.9,11.3,9.5,14.6,16.7c3.8-6.9,9.1-12.3,15.7-16.4c6.7-4.1,14-6.1,22.1-6.1
			C788.5,343.3,799.2,347.5,807,355.9z"/>
		<path class="st0" d="M1016.5,355.9c7.8,8.4,11.7,20,11.7,34.9v64.1h-33.7v-60.2c0-7-1.9-12.4-5.6-16.3c-3.8-3.9-8.9-5.8-15.3-5.8
			c-6.7,0-12,2.1-15.9,6.2c-3.9,4.2-5.8,10-5.8,17.5v58.6h-33.8v-60.2c0-7-1.8-12.4-5.5-16.3c-3.7-3.9-8.8-5.8-15.2-5.8
			c-6.7,0-12.1,2-16,6.1c-4,4.1-5.9,10-5.9,17.6v58.6h-33.9V344.5h33.9v18.8c2.9-6.2,7.4-11.1,13.4-14.6c6-3.6,13-5.3,21.1-5.3
			c8.4,0,15.9,1.9,22.4,5.8c6.5,3.9,11.3,9.5,14.6,16.7c3.8-6.9,9.1-12.3,15.7-16.4c6.7-4.1,14-6.1,22.1-6.1
			C998,343.3,1008.7,347.5,1016.5,355.9z"/>
		<path class="st0" d="M1131.8,349.9c8.6,4.6,15.4,11.1,20.4,19.7c4.9,8.6,7.4,18.6,7.4,30.1s-2.5,21.5-7.4,30.1
			c-4.9,8.6-11.7,15.1-20.4,19.7c-8.6,4.6-18.4,6.8-29.4,6.8c-11,0-20.8-2.3-29.5-6.8s-15.5-11.1-20.5-19.7
			c-4.9-8.6-7.4-18.6-7.4-30.1s2.5-21.5,7.4-30.1c4.9-8.6,11.8-15.1,20.5-19.7c8.7-4.6,18.5-6.8,29.5-6.8
			C1113.3,343.1,1123.1,345.4,1131.8,349.9z M1086,379.4c-4.4,4.7-6.6,11.5-6.6,20.3c0,8.8,2.2,15.6,6.6,20.2
			c4.4,4.6,9.9,6.9,16.3,6.9c6.5,0,11.9-2.3,16.2-6.9c4.4-4.6,6.5-11.3,6.5-20.2c0-8.8-2.2-15.6-6.5-20.3c-4.4-4.7-9.8-7-16.2-7
			C1095.9,372.4,1090.5,374.7,1086,379.4z"/>
		<path class="st0" d="M1270.5,349.9c7.2,4.6,12.9,11.1,17,19.6s6.2,18.6,6.2,30.2c0,11.5-2.1,21.5-6.2,30.1
			c-4.2,8.6-9.8,15.1-17,19.7c-7.2,4.6-15.3,6.8-24.4,6.8c-8.4,0-15.7-1.9-21.8-5.7c-6.1-3.8-10.5-9-13.3-15.6v20h-33.9V308.5h33.9
			v56c2.8-6.6,7.2-11.8,13.3-15.6c6.1-3.8,13.3-5.7,21.8-5.7C1255.2,343.1,1263.3,345.4,1270.5,349.9z M1217.7,380
			c-4.6,4.8-6.8,11.4-6.8,19.7c0,8.2,2.3,14.7,6.8,19.6c4.6,4.9,10.4,7.3,17.5,7.3c7.3,0,13.1-2.4,17.5-7.1
			c4.4-4.8,6.6-11.3,6.6-19.8c0-8.4-2.2-15-6.6-19.8c-4.4-4.8-10.3-7.1-17.5-7.1C1228.1,372.8,1222.2,375.2,1217.7,380z"/>
		<path class="st0" d="M1313.8,300.6c3.7-3.4,8.6-5,14.6-5c6.1,0,11,1.7,14.6,5c3.7,3.4,5.5,7.6,5.5,12.8c0,5-1.8,9.2-5.5,12.6
			c-3.7,3.4-8.6,5-14.6,5c-6.1,0-11-1.7-14.6-5c-3.7-3.4-5.5-7.6-5.5-12.6C1308.2,308.3,1310.1,304,1313.8,300.6z M1345.3,344.5
			v110.5h-33.9V344.5H1345.3z"/>
		<path class="st0" d="M1402.5,308.5v146.5h-33.9V308.5H1402.5z"/>
		<path class="st0" d="M1428.2,300.6c3.7-3.4,8.6-5,14.6-5c6.1,0,11,1.7,14.6,5c3.7,3.4,5.5,7.6,5.5,12.8c0,5-1.8,9.2-5.5,12.6
			c-3.7,3.4-8.6,5-14.6,5c-6.1,0-11-1.7-14.6-5c-3.7-3.4-5.5-7.6-5.5-12.6C1422.6,308.3,1424.5,304,1428.2,300.6z M1459.7,344.5
			v110.5h-33.9V344.5H1459.7z"/>
		<path class="st0" d="M1586.9,405.8h-76.6c0.4,8.3,2.5,14.3,6.3,17.9c3.8,3.6,8.7,5.4,14.6,5.4c5,0,9.2-1.3,12.5-3.8
			c3.3-2.5,5.5-5.7,6.5-9.7h35.8c-1.5,7.8-4.6,14.7-9.5,20.9c-4.9,6.1-11.1,11-18.6,14.5c-7.5,3.5-15.9,5.2-25.1,5.2
			c-10.8,0-20.4-2.3-28.8-6.8c-8.4-4.6-14.9-11.1-19.7-19.7c-4.8-8.6-7.1-18.6-7.1-30.1c0-11.6,2.3-21.7,7-30.2
			c4.7-8.5,11.2-15,19.7-19.6c8.4-4.6,18.1-6.8,28.9-6.8c11,0,20.6,2.2,28.9,6.7c8.3,4.5,14.7,10.8,19.3,18.9
			c4.6,8.1,6.8,17.5,6.8,28C1587.9,399.5,1587.6,402.6,1586.9,405.8z M1547.8,375.3c-4-3.6-9-5.4-14.9-5.4c-6.2,0-11.4,1.8-15.4,5.5
			c-4.1,3.7-6.4,9.1-6.9,16.2h43.2C1553.8,384.3,1551.9,378.9,1547.8,375.3z"/>
		<path class="st0" d="M1655.7,349.2c6.7-4,13.9-5.9,21.7-5.9v36.2h-9.7c-9,0-15.9,1.9-20.9,5.7c-4.9,3.8-7.4,10.3-7.4,19.4v50.3
			h-33.9V344.5h33.9v20.8C1643.6,358.5,1649.1,353.2,1655.7,349.2z"/>
	</g>
</g>
</svg>
