<?xml version="1.0" encoding="utf-8"?>
<!-- Generator: Adobe Illustrator 24.3.0, SVG Export Plug-In . SVG Version: 6.00 Build 0)  -->
<svg version="1.1" id="Calque_1" xmlns="http://www.w3.org/2000/svg" xmlns:xlink="http://www.w3.org/1999/xlink" x="0px" y="0px"
	 viewBox="0 0 1710 514.4" style="enable-background:new 0 0 1710 514.4;" xml:space="preserve">
<style type="text/css">
	.st0{fill:#6C4897;}
	.st1{enable-background:new    ;}
</style>
<path class="st0" d="M271.3,168.4v187h38.1v-187H271.3z M288.4,197.4h-8.1v-8.1h8.1V197.4z M288.4,185.6h-8.1v-8.1h8.1V185.6z
	 M300.2,197.4h-8.1v-8.1h8.1V197.4z M300.2,185.6h-8.1v-8.1h8.1V185.6z"/>
<path class="st0" d="M418.4,241.1c-0.9,55.1-49.2,78.6-98.9,72.7v-37.2c15.8-0.4,41.3,3.3,52.6-10.5c22.5-20.9,5.9-62.3-25.4-61.2
	l-27.2,0v-36.4h26.2C385.9,168.4,418.4,201,418.4,241.1z"/>
<polygon class="st0" points="300.2,159 300.2,162.4 265.3,162.4 265.3,197.3 261.8,197.3 261.8,159 "/>
<path class="st0" d="M182,318.4c-2.3,2.4-4,5.2-5.3,8.2c10.5-8.4,17-9.1,30.1-8.2l41,0c1.4,0,2.5,1.1,2.5,2.5l0,0v34.5H120.8
	c2.2-48.5,52.9-76.4,81.5-110.5c16.2-19.4,5.8-49.1-21.6-41.5c2.6-2.9,4.9-5.5,7.2-8.2c-15.6,6.7-22.1,20-23.1,35.7l-37.6-3.6
	c-1.4-0.1-2.4-1.4-2.3-2.7c0-0.1,0-0.1,0-0.2c2.5-28.6,19.7-49.7,47.9-54.1c61.7-13.2,101.7,44.3,61.3,95.5
	C219.2,285.8,197.9,299.2,182,318.4z"/>
<path class="st0" d="M511.1,257.2c0,125.4-110.5,227.1-247.2,228.1c289.7-26.9,289.5-429.5-0.1-456.2
	C400.6,30.1,511.1,131.8,511.1,257.2z"/>
<path class="st0" d="M267.2,467.6c50.3,0.1,99-18,137.2-50.8C273.6,552.5,21.2,448.3,28.1,257.2C21.1,66.1,273.7-38.2,404.4,97.6
	C88.7-124.8-117.8,430,267.2,467.6z"/>
<g>
	<g class="st1">
		<path class="st0" d="M607.8,176.9v44.4h-30.6V94.7h49.6c15,0,26.5,3.7,34.4,11.2c7.9,7.5,11.8,17.5,11.8,30.1
			c0,7.9-1.8,14.9-5.3,21c-3.5,6.1-8.7,11-15.7,14.5c-6.9,3.5-15.3,5.3-25.2,5.3H607.8z M641.8,136.1c0-11.1-6.1-16.6-18.4-16.6
			h-15.6v32.9h15.6C635.6,152.3,641.8,146.9,641.8,136.1z"/>
		<path class="st0" d="M745.5,125.3c5.5,3.5,9.5,8.2,12.2,14.1v-18.1h30.4v99.8h-30.4v-18.1c-2.6,6-6.7,10.7-12.2,14.1
			c-5.5,3.5-12.1,5.2-19.7,5.2c-8.2,0-15.6-2.1-22.1-6.2c-6.5-4.1-11.6-10-15.4-17.8c-3.8-7.8-5.6-16.8-5.6-27.2
			c0-10.5,1.9-19.6,5.6-27.3c3.8-7.7,8.9-13.6,15.4-17.7c6.5-4.1,13.9-6.2,22.1-6.2C733.5,120.1,740,121.9,745.5,125.3z
			 M719.8,153.4c-4,4.3-6,10.3-6,17.9c0,7.6,2,13.6,6,17.9c4,4.3,9.3,6.4,15.8,6.4c6.4,0,11.7-2.2,15.8-6.6
			c4.1-4.4,6.2-10.3,6.2-17.7c0-7.5-2.1-13.4-6.2-17.8c-4.1-4.4-9.4-6.5-15.8-6.5C729.1,147,723.8,149.1,719.8,153.4z"/>
		<path class="st0" d="M854.6,125.7c6-3.6,12.6-5.4,19.6-5.4v32.7h-8.8c-8.1,0-14.4,1.7-18.9,5.2c-4.5,3.5-6.7,9.3-6.7,17.5v45.4
			h-30.6v-99.8h30.6v18.8C843.6,134.1,848.5,129.3,854.6,125.7z"/>
		<path class="st0" d="M943.6,194.9v26.3h-13.8c-11.7,0-20.8-2.9-27.3-8.7c-6.5-5.8-9.8-15.4-9.8-28.7v-36.7h-13.4v-25.8h13.4V96.9
			h30.6v24.5h20v25.8h-20v37.2c0,3.9,0.8,6.7,2.4,8.2c1.6,1.6,4.3,2.3,8.1,2.3H943.6z"/>
		<path class="st0" d="M962.9,81.8c3.3-3,7.8-4.6,13.2-4.6c5.5,0,9.9,1.5,13.2,4.6c3.3,3,5,6.9,5,11.5c0,4.5-1.7,8.3-5,11.4
			c-3.3,3-7.8,4.6-13.2,4.6c-5.5,0-9.9-1.5-13.2-4.6c-3.3-3-5-6.8-5-11.4C957.9,88.7,959.5,84.8,962.9,81.8z M991.3,121.4v99.8
			h-30.6v-99.8H991.3z"/>
		<path class="st0" d="M1089.9,130.8c8.7,7.1,14.2,16.8,16.5,29.3H1074c-1-4.3-2.9-7.6-5.9-10c-3-2.4-6.7-3.6-11.3-3.6
			c-5.4,0-9.8,2.1-13.2,6.4c-3.5,4.2-5.2,10.4-5.2,18.5c0,8.1,1.7,14.3,5.2,18.5c3.5,4.2,7.9,6.3,13.2,6.3c4.5,0,8.3-1.2,11.3-3.6
			c3-2.4,4.9-5.7,5.9-10h32.4c-2.3,12.4-7.8,22.2-16.5,29.3c-8.7,7.1-19.5,10.6-32.4,10.6c-9.8,0-18.5-2.1-26-6.2
			c-7.6-4.1-13.5-10-17.8-17.8c-4.3-7.8-6.4-16.8-6.4-27.2c0-10.5,2.1-19.6,6.3-27.3c4.2-7.7,10.2-13.6,17.8-17.7
			c7.6-4.1,16.3-6.2,26.1-6.2C1070.4,120.1,1081.2,123.7,1089.9,130.8z"/>
		<path class="st0" d="M1221.6,121.4v99.8h-30.8v-18.1c-2.9,5.8-7.1,10.5-12.8,14c-5.7,3.5-12.3,5.2-19.8,5.2
			c-11.5,0-20.5-3.8-27.3-11.5c-6.7-7.6-10.1-18.1-10.1-31.5v-58h30.4v54.2c0,6.8,1.8,12.1,5.3,15.8c3.5,3.8,8.3,5.6,14.2,5.6
			c6.2,0,11.1-2,14.7-5.9c3.6-3.9,5.4-9.5,5.4-16.8v-53H1221.6z"/>
		<path class="st0" d="M1273.3,88.8v132.4h-30.6V88.8H1273.3z"/>
		<path class="st0" d="M1296.6,81.8c3.3-3,7.8-4.6,13.2-4.6c5.5,0,9.9,1.5,13.2,4.6c3.3,3,5,6.9,5,11.5c0,4.5-1.7,8.3-5,11.4
			c-3.3,3-7.8,4.6-13.2,4.6c-5.5,0-9.9-1.5-13.2-4.6c-3.3-3-5-6.8-5-11.4C1291.5,88.7,1293.2,84.8,1296.6,81.8z M1325,121.4v99.8
			h-30.6v-99.8H1325z"/>
		<path class="st0" d="M1440,176.9h-69.2c0.4,7.5,2.3,12.9,5.7,16.2c3.5,3.3,7.9,4.9,13.2,4.9c4.5,0,8.3-1.1,11.3-3.4
			c3-2.3,4.9-5.2,5.9-8.8h32.4c-1.3,7-4.2,13.3-8.6,18.9c-4.4,5.5-10,9.9-16.8,13.1c-6.8,3.2-14.4,4.7-22.7,4.7
			c-9.8,0-18.5-2.1-26-6.2c-7.6-4.1-13.5-10-17.8-17.8c-4.3-7.8-6.4-16.8-6.4-27.2c0-10.5,2.1-19.6,6.3-27.3
			c4.2-7.7,10.2-13.6,17.8-17.7c7.6-4.1,16.3-6.2,26.1-6.2c9.9,0,18.6,2,26.1,6.1c7.5,4.1,13.3,9.8,17.4,17.1
			c4.1,7.3,6.2,15.8,6.2,25.3C1440.9,171.1,1440.6,173.9,1440,176.9z M1404.7,149.2c-3.6-3.3-8.1-4.9-13.5-4.9c-5.6,0-10.3,1.7-14,5
			c-3.7,3.3-5.8,8.2-6.3,14.7h39C1410.1,157.4,1408.3,152.5,1404.7,149.2z"/>
		<path class="st0" d="M1502.2,125.7c6-3.6,12.6-5.4,19.6-5.4v32.7h-8.8c-8.1,0-14.4,1.7-18.9,5.2c-4.5,3.5-6.7,9.3-6.7,17.5v45.4
			h-30.6v-99.8h30.6v18.8C1491.3,134.1,1496.2,129.3,1502.2,125.7z"/>
	</g>
	<g class="st1">
		<path class="st0" d="M634.8,340c5.5,3.5,9.5,8.2,12.2,14.1v-18.1h30.4v99.8h-30.4v-18.1c-2.6,6-6.7,10.7-12.2,14.1
			c-5.5,3.5-12,5.2-19.7,5.2c-8.2,0-15.6-2.1-22.1-6.2c-6.5-4.1-11.6-10-15.4-17.8c-3.8-7.8-5.6-16.8-5.6-27.2
			c0-10.5,1.9-19.6,5.6-27.3s8.9-13.6,15.4-17.7c6.5-4.1,13.9-6.2,22.1-6.2C622.7,334.8,629.3,336.6,634.8,340z M641.9,308.2v20.8
			l-43.1-18.4v-23.1L641.9,308.2z M609.1,368.1c-4,4.3-6,10.3-6,17.9c0,7.6,2,13.6,6,17.9c4,4.3,9.3,6.4,15.8,6.4
			c6.4,0,11.7-2.2,15.8-6.6c4.1-4.4,6.2-10.3,6.2-17.7c0-7.5-2.1-13.4-6.2-17.8c-4.1-4.4-9.4-6.5-15.8-6.5
			C618.4,361.7,613.1,363.8,609.1,368.1z"/>
		<path class="st0" d="M764.8,391.5v44.4h-30.6V309.4h49.6c15,0,26.5,3.7,34.4,11.2c7.9,7.5,11.8,17.5,11.8,30.1
			c0,7.9-1.8,14.9-5.3,21c-3.5,6.1-8.7,11-15.7,14.5c-6.9,3.5-15.3,5.3-25.2,5.3H764.8z M798.8,350.8c0-11.1-6.1-16.6-18.4-16.6
			h-15.6V367h15.6C792.7,367,798.8,361.6,798.8,350.8z"/>
		<path class="st0" d="M902.6,340c5.5,3.5,9.5,8.2,12.2,14.1v-18.1h30.4v99.8h-30.4v-18.1c-2.6,6-6.7,10.7-12.2,14.1
			c-5.5,3.5-12,5.2-19.7,5.2c-8.2,0-15.6-2.1-22.1-6.2c-6.5-4.1-11.6-10-15.4-17.8c-3.8-7.8-5.6-16.8-5.6-27.2
			c0-10.5,1.9-19.6,5.6-27.3c3.8-7.7,8.9-13.6,15.4-17.7c6.5-4.1,13.9-6.2,22.1-6.2C890.5,334.8,897.1,336.6,902.6,340z
			 M876.9,368.1c-4,4.3-6,10.3-6,17.9c0,7.6,2,13.6,6,17.9c4,4.3,9.3,6.4,15.8,6.4c6.4,0,11.7-2.2,15.8-6.6
			c4.1-4.4,6.2-10.3,6.2-17.7c0-7.5-2.1-13.4-6.2-17.8c-4.1-4.4-9.4-6.5-15.8-6.5C886.2,361.7,880.9,363.8,876.9,368.1z"/>
		<path class="st0" d="M1011.6,340.4c6-3.6,12.6-5.4,19.6-5.4v32.7h-8.8c-8.1,0-14.4,1.7-18.9,5.2c-4.5,3.5-6.7,9.3-6.7,17.5v45.4
			h-30.6v-99.8h30.6v18.8C1000.7,348.8,1005.6,344,1011.6,340.4z"/>
		<path class="st0" d="M1100.7,409.6v26.3h-13.8c-11.7,0-20.8-2.9-27.3-8.7c-6.5-5.8-9.8-15.4-9.8-28.7v-36.7h-13.4v-25.8h13.4
			v-24.5h30.6v24.5h20v25.8h-20v37.2c0,3.9,0.8,6.7,2.4,8.2c1.6,1.6,4.3,2.3,8.1,2.3H1100.7z"/>
		<path class="st0" d="M1120,296.5c3.3-3,7.8-4.6,13.2-4.6c5.5,0,9.9,1.5,13.2,4.6c3.3,3,5,6.9,5,11.5c0,4.5-1.7,8.3-5,11.4
			c-3.3,3-7.8,4.6-13.2,4.6c-5.5,0-9.9-1.5-13.2-4.6c-3.3-3-5-6.8-5-11.4C1115,303.3,1116.6,299.5,1120,296.5z M1148.4,336.1v99.8
			h-30.6v-99.8H1148.4z"/>
		<path class="st0" d="M1247,345.5c8.7,7.1,14.2,16.8,16.5,29.3h-32.4c-1-4.3-2.9-7.6-5.9-10c-3-2.4-6.7-3.6-11.3-3.6
			c-5.4,0-9.8,2.1-13.2,6.4c-3.5,4.2-5.2,10.4-5.2,18.5c0,8.1,1.7,14.3,5.2,18.5c3.5,4.2,7.9,6.3,13.2,6.3c4.5,0,8.3-1.2,11.3-3.6
			c3-2.4,4.9-5.7,5.9-10h32.4c-2.3,12.4-7.8,22.2-16.5,29.3c-8.7,7.1-19.5,10.6-32.4,10.6c-9.8,0-18.5-2.1-26-6.2
			c-7.6-4.1-13.5-10-17.8-17.8c-4.3-7.8-6.4-16.8-6.4-27.2c0-10.5,2.1-19.6,6.4-27.3s10.2-13.6,17.8-17.7c7.6-4.1,16.3-6.2,26.1-6.2
			C1227.5,334.8,1238.3,338.4,1247,345.5z"/>
		<path class="st0" d="M1378.7,336.1v99.8h-30.8v-18.1c-2.9,5.8-7.1,10.5-12.8,14c-5.7,3.5-12.3,5.2-19.8,5.2
			c-11.5,0-20.5-3.8-27.3-11.5c-6.7-7.6-10.1-18.1-10.1-31.5v-58h30.4v54.2c0,6.8,1.8,12.1,5.3,15.8c3.5,3.8,8.3,5.6,14.2,5.6
			c6.2,0,11.1-2,14.7-5.9c3.6-3.9,5.4-9.5,5.4-16.8v-53H1378.7z"/>
		<path class="st0" d="M1430.4,303.5v132.4h-30.6V303.5H1430.4z"/>
		<path class="st0" d="M1453.6,296.5c3.3-3,7.8-4.6,13.2-4.6c5.5,0,9.9,1.5,13.2,4.6c3.3,3,5,6.9,5,11.5c0,4.5-1.7,8.3-5,11.4
			c-3.3,3-7.8,4.6-13.2,4.6c-5.5,0-9.9-1.5-13.2-4.6c-3.3-3-5-6.8-5-11.4C1448.6,303.3,1450.3,299.5,1453.6,296.5z M1482.1,336.1
			v99.8h-30.6v-99.8H1482.1z"/>
		<path class="st0" d="M1597.1,391.5h-69.2c0.4,7.5,2.3,12.9,5.7,16.2c3.5,3.3,7.9,4.9,13.2,4.9c4.5,0,8.3-1.1,11.3-3.4
			c3-2.3,4.9-5.2,5.9-8.8h32.4c-1.3,7-4.2,13.3-8.6,18.9c-4.4,5.5-10,9.9-16.8,13.1c-6.8,3.2-14.4,4.7-22.7,4.7
			c-9.8,0-18.5-2.1-26-6.2c-7.6-4.1-13.5-10-17.8-17.8c-4.3-7.8-6.4-16.8-6.4-27.2c0-10.5,2.1-19.6,6.4-27.3
			c4.2-7.7,10.2-13.6,17.8-17.7c7.6-4.1,16.3-6.2,26.1-6.2c9.9,0,18.6,2,26.1,6.1c7.5,4.1,13.3,9.8,17.4,17.1
			c4.1,7.3,6.2,15.8,6.2,25.3C1598,385.8,1597.7,388.6,1597.1,391.5z M1561.8,363.9c-3.6-3.3-8.1-4.9-13.5-4.9c-5.6,0-10.3,1.7-14,5
			c-3.7,3.3-5.8,8.2-6.3,14.7h39C1567.2,372.1,1565.4,367.2,1561.8,363.9z"/>
		<path class="st0" d="M1659.3,340.4c6-3.6,12.6-5.4,19.6-5.4v32.7h-8.8c-8.1,0-14.4,1.7-18.9,5.2c-4.5,3.5-6.7,9.3-6.7,17.5v45.4
			h-30.6v-99.8h30.6v18.8C1648.3,348.8,1653.3,344,1659.3,340.4z"/>
	</g>
</g>
</svg>
