<?xml version="1.0" encoding="utf-8"?>
<!-- Generator: Adobe Illustrator 24.3.0, SVG Export Plug-In . SVG Version: 6.00 Build 0)  -->
<svg version="1.1" id="Calque_1" xmlns="http://www.w3.org/2000/svg" xmlns:xlink="http://www.w3.org/1999/xlink" x="0px" y="0px"
	 viewBox="0 0 1722.9 514.4" style="enable-background:new 0 0 1722.9 514.4;" xml:space="preserve">
<style type="text/css">
	.st0{fill:#76B82A;}
	.st1{enable-background:new    ;}
</style>
<path class="st0" d="M271.3,168.4v187h38.1v-187H271.3z M288.4,197.4h-8.1v-8.1h8.1V197.4z M288.4,185.6h-8.1v-8.1h8.1V185.6z
	 M300.2,197.4h-8.1v-8.1h8.1V197.4z M300.2,185.6h-8.1v-8.1h8.1V185.6z"/>
<path class="st0" d="M418.4,241.1c0,40.1-32.5,72.7-72.6,72.7c0,0,0,0,0,0h-26.2v-37.2h27.2c19.8,0,35.9-16.1,35.9-35.9
	c0-19.8-16.1-35.9-35.9-35.9h-27.2v-36.4h26.2C385.9,168.4,418.4,201,418.4,241.1C418.4,241.1,418.4,241.1,418.4,241.1L418.4,241.1z
	"/>
<polygon class="st0" points="300.2,159 300.2,162.4 265.3,162.4 265.3,197.3 261.8,197.3 261.8,159 "/>
<path class="st0" d="M182,318.4c-2.3,2.4-4,5.2-5.3,8.2c2-1,3.8-2.3,5.5-3.7c3-2.5,6.6-4.1,10.5-4.5c1.1-0.1,2.2-0.2,3.3-0.1
	c3.6,0.1,7.2,0.1,10.8,0.1h41c1.4,0,2.5,1.1,2.5,2.5l0,0v34.5H120.8l0.2-2.7c0.5-5.7,1.7-11.2,3.5-16.6c3.8-12,10.5-23.1,21.1-34.9
	c9.9-11,20.9-21.2,31.6-31l1.4-1.3c1-0.9,2-1.8,2.9-2.7c7.2-6.6,14.7-13.4,20.7-21.2c6.4-8.2,8.8-17,7.2-26
	c-0.5-3.2-1.7-6.3-3.6-8.9c-3.4-4.7-8.9-7.3-16.1-7.6c-3.1-0.2-6.2,0.2-9.2,1c2.6-2.9,4.9-5.5,7.2-8.2c-7.9,3.3-14.4,9.2-18.4,16.7
	c0,0.1,0,0.1-0.1,0.1c-0.3,0.5-0.5,1-0.8,1.5c-0.1,0.2-0.2,0.4-0.3,0.5c-1,2.4-1.7,4.8-2.1,7.4c-0.3,1.5-0.5,3-0.7,4.6
	c-0.1,0.8-0.2,1.6-0.3,2.4l-0.4,2.4l-37.6-3.6c-1.4-0.1-2.4-1.4-2.3-2.7c0-0.1,0-0.1,0-0.2l0,0c0.2-1.1,0.4-2.3,0.6-3.4
	c0.4-2.5,0.8-4.8,1.3-7.2c3-13.2,8.1-22.6,16.2-29.7c8-7.1,18.1-11.8,29.9-13.8c14.7-2.6,28.1-1.9,40.8,2
	c23.1,7.2,37.5,27.4,36.8,51.3c-0.5,14.4-5.8,28.1-16.2,42.1c-6.6,8.9-14.8,16.4-22.6,23.7l-0.7,0.6c-2.2,2-4.3,4-6.5,6
	c-3.2,3-6.5,6-9.8,9c-2.2,2-4.4,4.1-6.5,6.2C186,313.5,184,315.8,182,318.4C182,318.3,182,318.4,182,318.4z"/>
<path class="st0" d="M511.1,257.2c0,125.4-110.5,227.1-247.2,228.1c125.4-12.7,220.9-110,220.9-228.1c0-118.2-95.6-215.5-221-228.1
	C400.6,30.1,511.1,131.8,511.1,257.2z"/>
<path class="st0" d="M267.2,467.6c50.3,0.1,99-18,137.2-50.8c-41.3,40.1-96.7,62.5-154.3,62.4c-120.7,0-218.9-96.3-221.9-216.2
	c0-1,0-1.9-0.1-2.9c0-1,0-1.9,0-2.9c0-1,0-1.9,0-2.9c0-1,0-1.9,0.1-2.9c3-119.9,101.2-216.2,221.9-216.2
	c57.6-0.1,112.9,22.3,154.3,62.4c-38.1-32.9-86.8-50.9-137.2-50.8C151,46.8,56.8,141,56.8,257.2C56.8,373.4,151,467.6,267.2,467.6z"
	/>
<g>
	<g class="st1">
		<path class="st0" d="M613.2,76.8v140.5h-34V76.8H613.2z"/>
		<path class="st0" d="M812.5,117.8c7.8,8.4,11.7,20.1,11.7,35.1v64.4h-33.8v-60.4c0-7-1.9-12.5-5.7-16.4c-3.8-3.9-8.9-5.9-15.4-5.9
			c-6.8,0-12.1,2.1-16,6.3c-3.9,4.2-5.9,10-5.9,17.6v58.8h-34v-60.4c0-7-1.9-12.5-5.6-16.4c-3.7-3.9-8.8-5.9-15.3-5.9
			c-6.8,0-12.1,2.1-16.1,6.2c-4,4.1-6,10-6,17.7v58.8h-34V106.4h34v18.9c2.9-6.2,7.4-11.1,13.4-14.7c6-3.6,13.1-5.4,21.2-5.4
			c8.5,0,16,2,22.5,5.9c6.5,3.9,11.4,9.5,14.7,16.8c3.8-6.9,9.1-12.4,15.8-16.5c6.7-4.1,14.1-6.2,22.2-6.2
			C793.9,105.2,804.7,109.4,812.5,117.8z"/>
		<path class="st0" d="M1022.7,117.8c7.8,8.4,11.7,20.1,11.7,35.1v64.4h-33.8v-60.4c0-7-1.9-12.5-5.7-16.4
			c-3.8-3.9-8.9-5.9-15.4-5.9c-6.8,0-12.1,2.1-16,6.3c-3.9,4.2-5.9,10-5.9,17.6v58.8h-34v-60.4c0-7-1.9-12.5-5.6-16.4
			c-3.7-3.9-8.8-5.9-15.3-5.9c-6.8,0-12.1,2.1-16.1,6.2c-4,4.1-6,10-6,17.7v58.8h-34V106.4h34v18.9c2.9-6.2,7.4-11.1,13.4-14.7
			c6-3.6,13.1-5.4,21.2-5.4c8.5,0,16,2,22.5,5.9c6.5,3.9,11.4,9.5,14.7,16.8c3.8-6.9,9.1-12.4,15.8-16.5c6.7-4.1,14.1-6.2,22.2-6.2
			C1004.1,105.2,1014.9,109.4,1022.7,117.8z"/>
		<path class="st0" d="M1138.4,111.8c8.7,4.6,15.5,11.2,20.5,19.8c5,8.6,7.4,18.7,7.4,30.2c0,11.5-2.5,21.6-7.4,30.2
			c-5,8.6-11.8,15.2-20.5,19.8c-8.7,4.6-18.5,6.9-29.5,6.9c-11,0-20.9-2.3-29.6-6.9c-8.7-4.6-15.6-11.2-20.6-19.8
			c-5-8.6-7.5-18.7-7.5-30.2c0-11.5,2.5-21.6,7.5-30.2c5-8.6,11.8-15.2,20.6-19.8c8.7-4.6,18.6-6.9,29.6-6.9
			C1119.9,105,1129.8,107.3,1138.4,111.8z M1092.5,141.4c-4.4,4.7-6.7,11.5-6.7,20.4c0,8.9,2.2,15.6,6.7,20.3c4.4,4.6,9.9,7,16.4,7
			c6.5,0,11.9-2.3,16.3-7c4.4-4.6,6.6-11.4,6.6-20.3c0-8.9-2.2-15.7-6.6-20.4c-4.4-4.7-9.8-7.1-16.3-7.1
			C1102.4,134.4,1097,136.7,1092.5,141.4z"/>
		<path class="st0" d="M1277.7,111.8c7.2,4.6,12.9,11.1,17.1,19.7c4.2,8.5,6.3,18.6,6.3,30.3c0,11.5-2.1,21.6-6.3,30.2
			c-4.2,8.6-9.9,15.2-17.1,19.8c-7.2,4.6-15.4,6.9-24.5,6.9c-8.5,0-15.8-1.9-21.9-5.8c-6.1-3.8-10.5-9.1-13.3-15.7v20.1h-34v-147h34
			v56.2c2.8-6.6,7.2-11.9,13.3-15.7c6.1-3.8,13.4-5.8,21.9-5.8C1262.3,105,1270.5,107.3,1277.7,111.8z M1224.7,142
			c-4.6,4.8-6.9,11.4-6.9,19.8c0,8.2,2.3,14.8,6.9,19.7c4.6,4.9,10.4,7.4,17.6,7.4c7.3,0,13.1-2.4,17.6-7.2
			c4.4-4.8,6.7-11.4,6.7-19.9c0-8.5-2.2-15.1-6.7-19.9c-4.4-4.8-10.3-7.2-17.6-7.2C1235.1,134.8,1229.2,137.2,1224.7,142z"/>
		<path class="st0" d="M1321.1,62.4c3.7-3.4,8.6-5.1,14.7-5.1c6.1,0,11,1.7,14.7,5.1c3.7,3.4,5.6,7.6,5.6,12.8c0,5-1.9,9.2-5.6,12.6
			c-3.7,3.4-8.6,5.1-14.7,5.1c-6.1,0-11-1.7-14.7-5.1c-3.7-3.4-5.6-7.6-5.6-12.6C1315.6,70,1317.4,65.7,1321.1,62.4z M1352.7,106.4
			v110.9h-34V106.4H1352.7z"/>
		<path class="st0" d="M1410.1,70.2v147h-34v-147H1410.1z"/>
		<path class="st0" d="M1436,62.4c3.7-3.4,8.6-5.1,14.7-5.1c6.1,0,11,1.7,14.7,5.1c3.7,3.4,5.6,7.6,5.6,12.8c0,5-1.9,9.2-5.6,12.6
			c-3.7,3.4-8.6,5.1-14.7,5.1c-6.1,0-11-1.7-14.7-5.1c-3.7-3.4-5.6-7.6-5.6-12.6C1430.4,70,1432.3,65.7,1436,62.4z M1467.6,106.4
			v110.9h-34V106.4H1467.6z"/>
		<path class="st0" d="M1595.3,168h-76.9c0.4,8.3,2.5,14.3,6.4,18c3.8,3.6,8.7,5.5,14.7,5.5c5,0,9.2-1.3,12.5-3.8
			c3.3-2.5,5.5-5.8,6.6-9.7h36c-1.5,7.8-4.6,14.8-9.5,21c-4.9,6.2-11.1,11-18.7,14.5c-7.5,3.5-16,5.3-25.2,5.3
			c-10.9,0-20.5-2.3-28.9-6.9c-8.4-4.6-15-11.2-19.8-19.8c-4.8-8.6-7.2-18.7-7.2-30.2c0-11.7,2.3-21.8,7.1-30.3
			c4.7-8.5,11.3-15.1,19.8-19.7c8.5-4.6,18.1-6.9,29-6.9c11,0,20.7,2.3,29,6.8c8.3,4.5,14.8,10.8,19.4,19c4.6,8.1,6.9,17.5,6.9,28.1
			C1596.3,161.6,1596,164.7,1595.3,168z M1556.1,137.3c-4-3.6-9-5.5-15-5.5c-6.2,0-11.4,1.9-15.5,5.6c-4.1,3.7-6.4,9.1-7,16.3h43.3
			C1562.1,146.4,1560.1,140.9,1556.1,137.3z"/>
		<path class="st0" d="M1664.4,111.1c6.7-4,13.9-6,21.8-6v36.4h-9.7c-9,0-16,1.9-21,5.8c-5,3.8-7.4,10.3-7.4,19.5v50.5h-34V106.4h34
			v20.9C1652.2,120.5,1657.7,115.1,1664.4,111.1z"/>
	</g>
	<g class="st1">
		<path class="st0" d="M704,455.7h-34l-56.8-86.2v86.2h-34V315.2h34l56.8,87v-87h34V455.7z"/>
		<path class="st0" d="M831.8,406.4h-76.9c0.4,8.3,2.5,14.3,6.4,18c3.8,3.6,8.7,5.5,14.7,5.5c5,0,9.2-1.3,12.5-3.8
			c3.3-2.5,5.5-5.8,6.6-9.7h36c-1.5,7.8-4.6,14.8-9.5,21c-4.9,6.2-11.1,11-18.7,14.5c-7.5,3.5-16,5.3-25.2,5.3
			c-10.9,0-20.5-2.3-28.9-6.9c-8.4-4.6-15-11.2-19.8-19.8c-4.8-8.6-7.2-18.7-7.2-30.2c0-11.7,2.3-21.8,7.1-30.3
			c4.7-8.5,11.3-15.1,19.8-19.7c8.5-4.6,18.1-6.9,29-6.9c11,0,20.7,2.3,29,6.8c8.3,4.5,14.8,10.8,19.4,19c4.6,8.1,6.9,17.5,6.9,28.1
			C832.7,400,832.4,403.1,831.8,406.4z M792.5,375.7c-4-3.6-9-5.5-15-5.5c-6.2,0-11.4,1.9-15.5,5.6c-4.1,3.7-6.4,9.1-7,16.3h43.3
			C798.5,384.8,796.5,379.4,792.5,375.7z"/>
		<path class="st0" d="M960.7,344.8v110.9h-34.2v-20.1c-3.2,6.5-7.9,11.7-14.2,15.5c-6.3,3.8-13.6,5.8-22,5.8
			c-12.7,0-22.8-4.2-30.3-12.7c-7.5-8.5-11.2-20.1-11.2-35v-64.4h33.8V405c0,7.5,2,13.4,5.9,17.6c3.9,4.2,9.2,6.3,15.8,6.3
			c6.9,0,12.3-2.2,16.3-6.6c4-4.4,6-10.6,6-18.7v-58.8H960.7z"/>
		<path class="st0" d="M1038.6,329.7c-5.6,0-9.6,1.2-12.1,3.6c-2.5,2.4-3.9,6.2-4.2,11.5h20.1v28.6h-20.1v82.3h-34v-82.3H975v-28.6
			h13.3v-1.2c0-13.8,4-24.4,12-31.9c8-7.5,19.6-11.2,34.9-11.2c3.2,0,5.6,0.1,7.2,0.2v29.2L1038.6,329.7z"/>
	</g>
</g>
</svg>
