<?xml version="1.0" encoding="utf-8"?>
<!-- Generator: Adobe Illustrator 24.3.0, SVG Export Plug-In . SVG Version: 6.00 Build 0)  -->
<svg version="1.1" id="Calque_1" xmlns="http://www.w3.org/2000/svg" xmlns:xlink="http://www.w3.org/1999/xlink" x="0px" y="0px"
	 viewBox="0 0 1710.6 514.4" style="enable-background:new 0 0 1710.6 514.4;" xml:space="preserve">
<style type="text/css">
	.st0{enable-background:new    ;}
	.st1{fill:#E83C5C;}
	.st2{fill:#FED05C;}
	.st3{fill:#FEFEFE;}
	.st4{fill:#F2705A;}
	.st5{fill:#415A6B;}
	.st6{fill:#F6B54C;}
	.st7{fill:#344A5E;}
	.st8{fill:#EF5540;}
	.st9{fill:#89D6F7;}
</style>
<g>
	<g class="st0">
		<path class="st1" d="M682.8,90.1c11.7,9.4,19.2,22,22.7,38h-35.8c-2.6-6.5-6.7-11.5-12.2-15.2s-12-5.5-19.5-5.5
			c-9.9,0-17.9,3.6-24,10.9s-9.1,17-9.1,29.1c0,12.1,3,21.8,9.1,29s14.1,10.8,24,10.8c7.5,0,14-1.8,19.5-5.5s9.5-8.7,12.2-15h35.8
			c-3.4,15.8-11,28.5-22.7,37.9s-26.4,14.2-44.2,14.2c-13.6,0-25.5-3-35.8-9s-18.2-14.4-23.9-25.2c-5.6-10.8-8.4-23.2-8.4-37
			c0-13.9,2.8-26.2,8.4-37c5.6-10.8,13.6-19.2,23.9-25.2c10.3-6,22.2-9,35.8-9C656.4,76.1,671.1,80.7,682.8,90.1z"/>
		<path class="st1" d="M805.5,112.4c8.6,4.6,15.4,11.1,20.4,19.7c4.9,8.6,7.4,18.6,7.4,30.1s-2.5,21.5-7.4,30.1
			s-11.7,15.1-20.4,19.7c-8.6,4.6-18.4,6.8-29.4,6.8s-20.8-2.3-29.5-6.8c-8.7-4.6-15.5-11.1-20.5-19.7c-4.9-8.6-7.4-18.6-7.4-30.1
			s2.5-21.5,7.4-30.1s11.8-15.1,20.5-19.7s18.5-6.8,29.5-6.8C787.1,105.6,796.9,107.8,805.5,112.4z M759.8,141.9
			c-4.4,4.7-6.6,11.5-6.6,20.3s2.2,15.6,6.6,20.2c4.4,4.6,9.9,6.9,16.3,6.9c6.5,0,11.9-2.3,16.2-6.9c4.4-4.6,6.5-11.3,6.5-20.2
			c0-8.8-2.2-15.6-6.5-20.3c-4.4-4.7-9.8-7-16.2-7C769.7,134.9,764.2,137.2,759.8,141.9z"/>
		<path class="st1" d="M951.2,118.4c7.5,8.4,11.2,20.1,11.2,34.8v64.1h-33.8v-60.2c0-7.4-1.9-13.2-5.8-17.3
			c-3.9-4.2-9.1-6.2-15.5-6.2c-6.9,0-12.3,2.2-16.3,6.5c-4,4.4-6,10.6-6,18.6v58.6h-34V106.9h33.9v20.2c3.2-6.6,7.9-11.8,14.2-15.6
			c6.3-3.8,13.6-5.7,22.1-5.7C933.7,105.8,943.8,110,951.2,118.4z"/>
		<path class="st1" d="M1058.5,116c8.4,7,13.6,16.2,15.7,27.7h-31.7c-0.9-4.5-3-8-6.2-10.6s-7.3-3.9-12.2-3.9
			c-3.8,0-6.7,0.8-8.7,2.5s-3,4-3,7c0,3.4,1.8,6,5.4,7.7c3.6,1.7,9.3,3.4,17.1,5.1c8.4,2,15.4,4,20.8,6s10.1,5.4,14.1,10
			s5.9,10.8,5.9,18.6c0,6.3-1.7,11.9-5.1,16.8c-3.4,4.9-8.4,8.7-14.8,11.5c-6.5,2.8-14.1,4.2-23,4.2c-14.9,0-26.9-3.3-35.8-9.9
			c-9-6.6-14.5-16-16.4-28.3h32.7c0.5,4.8,2.5,8.4,6,10.9s8,3.8,13.6,3.8c3.8,0,6.7-0.9,8.7-2.7s3-4.1,3-7c0-3.8-1.8-6.6-5.4-8.2
			c-3.6-1.6-9.5-3.4-17.7-5.2c-8.2-1.7-14.9-3.6-20.2-5.5c-5.3-2-9.8-5.2-13.7-9.6c-3.8-4.4-5.7-10.5-5.7-18.1
			c0-9.9,3.8-17.9,11.3-24.1c7.5-6.1,18.1-9.2,31.9-9.2C1039,105.6,1050.1,109.1,1058.5,116z"/>
		<path class="st1" d="M1198.6,168.3H1122c0.4,8.3,2.5,14.3,6.3,17.9c3.8,3.6,8.7,5.4,14.6,5.4c5,0,9.2-1.3,12.5-3.8
			s5.5-5.7,6.5-9.7h35.8c-1.5,7.8-4.6,14.7-9.5,20.9c-4.9,6.1-11.1,11-18.6,14.5s-15.9,5.2-25.1,5.2c-10.8,0-20.4-2.3-28.8-6.8
			c-8.4-4.6-14.9-11.1-19.7-19.7c-4.8-8.6-7.1-18.6-7.1-30.1c0-11.6,2.3-21.7,7-30.2s11.2-15,19.7-19.6c8.4-4.6,18.1-6.8,28.9-6.8
			c11,0,20.6,2.2,28.9,6.7s14.7,10.8,19.3,18.9c4.6,8.1,6.8,17.5,6.8,28C1199.6,162,1199.2,165,1198.6,168.3z M1159.5,137.7
			c-4-3.6-9-5.4-14.9-5.4c-6.2,0-11.4,1.8-15.4,5.5c-4.1,3.7-6.4,9.1-6.9,16.2h43.2C1165.4,146.8,1163.5,141.4,1159.5,137.7z"/>
		<path class="st1" d="M1219.6,63.1c3.7-3.4,8.6-5,14.6-5c6.1,0,11,1.7,14.6,5c3.7,3.4,5.5,7.6,5.5,12.8c0,5-1.8,9.2-5.5,12.6
			s-8.6,5-14.6,5c-6.1,0-11-1.7-14.6-5c-3.7-3.4-5.5-7.6-5.5-12.6C1214,70.7,1215.9,66.5,1219.6,63.1z M1251,106.9v110.5h-33.9
			V106.9H1251z"/>
		<path class="st1" d="M1308.2,70.9v146.5h-33.9V70.9H1308.2z"/>
		<path class="st1" d="M1405.3,116c8.4,7,13.6,16.2,15.7,27.7h-31.7c-0.9-4.5-3-8-6.2-10.6s-7.3-3.9-12.2-3.9
			c-3.8,0-6.7,0.8-8.7,2.5s-3,4-3,7c0,3.4,1.8,6,5.4,7.7s9.3,3.4,17.1,5.1c8.4,2,15.4,4,20.8,6s10.1,5.4,14.1,10s5.9,10.8,5.9,18.6
			c0,6.3-1.7,11.9-5.1,16.8c-3.4,4.9-8.4,8.7-14.8,11.5c-6.5,2.8-14.1,4.2-23,4.2c-14.9,0-26.9-3.3-35.8-9.9
			c-9-6.6-14.5-16-16.4-28.3h32.7c0.5,4.8,2.5,8.4,6,10.9s8,3.8,13.6,3.8c3.8,0,6.7-0.9,8.7-2.7s3-4.1,3-7c0-3.8-1.8-6.6-5.4-8.2
			c-3.6-1.6-9.5-3.4-17.7-5.2c-8.2-1.7-14.9-3.6-20.2-5.5c-5.3-2-9.8-5.2-13.7-9.6c-3.8-4.4-5.7-10.5-5.7-18.1
			c0-9.9,3.8-17.9,11.3-24.1c7.5-6.1,18.1-9.2,31.9-9.2C1385.8,105.6,1396.9,109.1,1405.3,116z"/>
	</g>
	<g class="st0">
		<path class="st1" d="M608.5,315v140h-33.8V315H608.5z"/>
		<path class="st1" d="M807,355.9c7.8,8.4,11.7,20,11.7,34.9v64.1H785v-60.2c0-7-1.9-12.4-5.6-16.3c-3.8-3.9-8.9-5.8-15.3-5.8
			c-6.7,0-12,2.1-15.9,6.2c-3.9,4.2-5.8,10-5.8,17.5v58.6h-33.8v-60.2c0-7-1.8-12.4-5.5-16.3s-8.8-5.8-15.2-5.8
			c-6.7,0-12.1,2-16,6.1c-4,4.1-5.9,10-5.9,17.6v58.6h-33.9V344.5H666v18.8c2.9-6.2,7.4-11.1,13.4-14.6c6-3.6,13-5.3,21.1-5.3
			c8.4,0,15.9,1.9,22.4,5.8s11.3,9.5,14.6,16.7c3.8-6.9,9.1-12.3,15.7-16.4c6.7-4.1,14-6.1,22.1-6.1
			C788.5,343.3,799.2,347.5,807,355.9z"/>
		<path class="st1" d="M1016.5,355.9c7.8,8.4,11.7,20,11.7,34.9v64.1h-33.7v-60.2c0-7-1.9-12.4-5.6-16.3c-3.8-3.9-8.9-5.8-15.3-5.8
			c-6.7,0-12,2.1-15.9,6.2c-3.9,4.2-5.8,10-5.8,17.5v58.6h-33.8v-60.2c0-7-1.8-12.4-5.5-16.3s-8.8-5.8-15.2-5.8
			c-6.7,0-12.1,2-16,6.1c-4,4.1-5.9,10-5.9,17.6v58.6h-33.9V344.5h33.9v18.8c2.9-6.2,7.4-11.1,13.4-14.6c6-3.6,13-5.3,21.1-5.3
			c8.4,0,15.9,1.9,22.4,5.8s11.3,9.5,14.6,16.7c3.8-6.9,9.1-12.3,15.7-16.4c6.7-4.1,14-6.1,22.1-6.1
			C998,343.3,1008.7,347.5,1016.5,355.9z"/>
		<path class="st1" d="M1131.8,349.9c8.6,4.6,15.4,11.1,20.4,19.7c4.9,8.6,7.4,18.6,7.4,30.1s-2.5,21.5-7.4,30.1
			s-11.7,15.1-20.4,19.7c-8.6,4.6-18.4,6.8-29.4,6.8s-20.8-2.3-29.5-6.8s-15.5-11.1-20.5-19.7c-4.9-8.6-7.4-18.6-7.4-30.1
			s2.5-21.5,7.4-30.1s11.8-15.1,20.5-19.7s18.5-6.8,29.5-6.8C1113.3,343.1,1123.1,345.4,1131.8,349.9z M1086,379.4
			c-4.4,4.7-6.6,11.5-6.6,20.3s2.2,15.6,6.6,20.2s9.9,6.9,16.3,6.9c6.5,0,11.9-2.3,16.2-6.9c4.4-4.6,6.5-11.3,6.5-20.2
			c0-8.8-2.2-15.6-6.5-20.3c-4.4-4.7-9.8-7-16.2-7C1095.9,372.4,1090.5,374.7,1086,379.4z"/>
		<path class="st1" d="M1270.5,349.9c7.2,4.6,12.9,11.1,17,19.6s6.2,18.6,6.2,30.2c0,11.5-2.1,21.5-6.2,30.1
			c-4.2,8.6-9.8,15.1-17,19.7s-15.3,6.8-24.4,6.8c-8.4,0-15.7-1.9-21.8-5.7c-6.1-3.8-10.5-9-13.3-15.6v20h-33.9V308.5h33.9v56
			c2.8-6.6,7.2-11.8,13.3-15.6c6.1-3.8,13.3-5.7,21.8-5.7C1255.2,343.1,1263.3,345.4,1270.5,349.9z M1217.7,380
			c-4.6,4.8-6.8,11.4-6.8,19.7c0,8.2,2.3,14.7,6.8,19.6c4.6,4.9,10.4,7.3,17.5,7.3c7.3,0,13.1-2.4,17.5-7.1
			c4.4-4.8,6.6-11.3,6.6-19.8c0-8.4-2.2-15-6.6-19.8s-10.3-7.1-17.5-7.1C1228.1,372.8,1222.2,375.2,1217.7,380z"/>
		<path class="st1" d="M1313.8,300.6c3.7-3.4,8.6-5,14.6-5c6.1,0,11,1.7,14.6,5c3.7,3.4,5.5,7.6,5.5,12.8c0,5-1.8,9.2-5.5,12.6
			s-8.6,5-14.6,5c-6.1,0-11-1.7-14.6-5c-3.7-3.4-5.5-7.6-5.5-12.6C1308.2,308.3,1310.1,304,1313.8,300.6z M1345.3,344.5V455h-33.9
			V344.5H1345.3z"/>
		<path class="st1" d="M1402.5,308.5V455h-33.9V308.5H1402.5z"/>
		<path class="st1" d="M1428.2,300.6c3.7-3.4,8.6-5,14.6-5c6.1,0,11,1.7,14.6,5c3.7,3.4,5.5,7.6,5.5,12.8c0,5-1.8,9.2-5.5,12.6
			s-8.6,5-14.6,5c-6.1,0-11-1.7-14.6-5c-3.7-3.4-5.5-7.6-5.5-12.6C1422.6,308.3,1424.5,304,1428.2,300.6z M1459.7,344.5V455h-33.9
			V344.5H1459.7z"/>
		<path class="st1" d="M1586.9,405.8h-76.6c0.4,8.3,2.5,14.3,6.3,17.9s8.7,5.4,14.6,5.4c5,0,9.2-1.3,12.5-3.8s5.5-5.7,6.5-9.7h35.8
			c-1.5,7.8-4.6,14.7-9.5,20.9c-4.9,6.1-11.1,11-18.6,14.5s-15.9,5.2-25.1,5.2c-10.8,0-20.4-2.3-28.8-6.8
			c-8.4-4.6-14.9-11.1-19.7-19.7c-4.8-8.6-7.1-18.6-7.1-30.1c0-11.6,2.3-21.7,7-30.2s11.2-15,19.7-19.6c8.4-4.6,18.1-6.8,28.9-6.8
			c11,0,20.6,2.2,28.9,6.7s14.7,10.8,19.3,18.9c4.6,8.1,6.8,17.5,6.8,28C1587.9,399.5,1587.6,402.6,1586.9,405.8z M1547.8,375.3
			c-4-3.6-9-5.4-14.9-5.4c-6.2,0-11.4,1.8-15.4,5.5c-4.1,3.7-6.4,9.1-6.9,16.2h43.2C1553.8,384.3,1551.9,378.9,1547.8,375.3z"/>
		<path class="st1" d="M1655.7,349.2c6.7-4,13.9-5.9,21.7-5.9v36.2h-9.7c-9,0-15.9,1.9-20.9,5.7c-4.9,3.8-7.4,10.3-7.4,19.4v50.3
			h-33.9V344.5h33.9v20.8C1643.6,358.5,1649.1,353.2,1655.7,349.2z"/>
	</g>
</g>
<g>
	<g>
		<path class="st2" d="M438.3,461.9c-65.6,0-131.2,0-196.7,0c-1.6-2-1.2-4.3-1.2-6.5c0-28.6,0.1-57.2-0.1-85.8
			c-0.1-9.8-0.9-19.6-5.8-28.6c-8.4-15.5-21.1-24.5-38.8-26.5c-27.3-3-50.6,17.8-53.4,42.3c-0.2,2.1-0.3,4.2-0.3,6.4
			c0,30.7,0,61.4,0,92.2c0,2.2,0.5,4.6-1.2,6.5c-12.3,0-24.5,0-36.8,0c-1.2-1.3-1.3-2.9-1.3-4.5c0-47.4-0.1-94.7,0-142.1
			c0-0.5,0.1-1.1,0.1-1.6c0.3-2,1.6-3.3,2.9-4.6c53.8-53.7,107.6-107.4,161.4-161.1c3.6-3.6,4.3-3.6,7.8-0.1
			c53.8,53.7,107.6,107.4,161.4,161.1c1.3,1.3,2.7,2.6,2.9,4.6c0.3,1.7,0.2,3.5,0.2,5.2c0,45.4,0,90.8,0,136.2
			C439.6,457.4,440.1,459.9,438.3,461.9z"/>
		<path class="st3" d="M68.1,252c0-65.4,0-130.8-0.1-196.2c0-2.5,0.2-3.4,3.2-3.4c134.4,0.1,268.8,0.1,403.3,0
			c2.9,0,3.2,0.9,3.2,3.4c-0.1,65.7-0.1,131.4-0.1,197c-2,0-2-1.8-2.4-3c-1-3.5-2.8-6.4-5.3-9c-15.5-15.2-30.7-30.6-46.1-45.9
			c-2.3-2.3-3.3-4.9-3.3-8.2c0.1-22.3,0-44.7,0-67c0-5.3,0.7-6,6-6.1c2.7-0.1,5.3,0,8,0c2.3,0,3.5-0.9,3.5-3.3
			c0.1-11.8,0-23.7,0-35.5c0-3.2-2.1-3.5-4.6-3.5c-11.3,0-22.6,0-34,0c-12.1,0-24.2,0-36.4,0c-4.6,0-5,0.4-5,5c0,10.9,0,21.8,0,32.7
			c0,4.2,0.4,4.3,4.6,4.6c4,0.3,8.3-1.1,12.1,1.2c0.8,1.2,0.9,2.5,0.9,3.8c-0.1,7.8,0.4,15.6-0.2,23.3c-0.4,1.7-1.3,2.2-2.9,1.1
			c-1.3-0.9-2.4-2.1-3.5-3.2c-25.7-25.7-51.7-51.1-77.1-77.1C281.4,52,263.4,52.1,253,62.6C202.7,113.3,152,163.5,101.7,214
			c-8.7,8.8-17.3,17.7-25.9,26.6c-2.3,2.4-4,5.3-5.2,8.4C70.1,250.3,70.2,252.1,68.1,252z"/>
		<path class="st4" d="M471.2,240.8c3.8,3.1,4.2,8,6.4,12c0,3.5,0,6.9,0,10.4c-3.6,21.2-25.1,26.7-38.8,20.1
			c-4.6-2.3-8.4-5.6-12-9.2c-49.8-49.7-99.6-99.4-149.4-149.1c-0.8-0.8-1.7-1.7-2.5-2.5c-1.3-1.3-2.5-1.3-3.8,0
			c-0.9,0.9-1.9,1.9-2.8,2.8c-49.8,49.7-99.6,99.4-149.4,149.1c-4.8,4.8-9.9,8.9-16.7,10.5c-12.5,3.5-25.8-2.2-31.9-13.6
			c-1.3-2.3-0.8-5-2-7.2c0-4,0-8,0-12c6.1-15.8,20-25.2,31.2-36.6C149.7,164.4,200.5,113.7,251.2,63c12.9-12.9,29.3-12.9,42.3,0
			c25.8,25.8,51.6,51.5,77.5,77.3c1,1,2.1,2,3.2,3c1.6,0.3,2.4,1.6,3.5,2.6c13.3,13.2,26.6,26.5,39.8,39.7c1.2,1.2,2.6,2.3,3,4.1
			c-0.2,2.8,1.2,4.8,3,6.7c13.8,13.8,27.6,27.5,41.4,41.4C466.7,239.6,469.1,239.6,471.2,240.8z"/>
		<path class="st5" d="M140.8,461.9c-0.1-1.7-0.2-3.4-0.2-5.2c0-30.8-0.1-61.7,0-92.5c0.1-25.4,16-45,40.5-50.3
			c28.9-6.2,58.5,16.1,59.7,45.5c1.2,32.4,0.2,64.9,0.5,97.3c0,1.7,0.2,3.4,0.3,5.2C208,461.9,174.4,461.9,140.8,461.9z"/>
		<path class="st3" d="M438.4,282.3c7,2.5,14,3.5,21.3,1c8.2-2.9,13.4-8.6,16.3-16.6c0.4-1.2,0.3-2.6,1.6-3.5
			c0,65.2,0,130.4,0.1,195.5c0,2.7-0.5,3.3-3.3,3.3c-12-0.2-24-0.1-36-0.1c0-48.3,0-96.6,0-144.9c0-1.7-0.1-3.4-0.1-5.2
			c-0.8-1.6-1.1-3.2-1.1-5c0-6.7,0-13.4,0-20.1C437.1,285.1,437.1,283.5,438.4,282.3z"/>
		<path class="st3" d="M68.1,264c0.9,0.3,1,1.2,1.2,1.9c5.2,14.8,18.5,21.9,33.4,17.7c1.6-0.1,2.3,0.9,2.3,2.2
			c0.4,8.2,0.8,16.4-0.2,24.6c-0.1,0.5-0.4,1-0.7,1.4c0,21.4-0.1,42.7-0.1,64.1c0,28.7,0,57.3,0.1,86c-11.1,0-22.1-0.1-33.2,0.1
			c-2.4,0-2.9-0.5-2.9-2.9c0.1-51.3,0.1-102.7,0.1-154C68.1,291.4,68.1,277.7,68.1,264z"/>
		<path class="st6" d="M104.1,311.8c-0.1-8.2-0.1-16.3-0.2-24.5c0-1.3,0.6-3-1.2-3.8c5.8-1.3,10.2-4.9,14.3-9
			c50.7-50.6,101.4-101.2,152.1-151.8c4.2-4.2,3.2-4.2,7.5,0.1c49.8,49.7,99.5,99.3,149.3,149c3.9,3.9,7.9,7.5,12.5,10.4
			c-0.1,9.8-0.1,19.7-0.2,29.5c-1.2-1.1-2.4-2.1-3.5-3.2C381.3,255.4,328,202.2,274.7,148.8c-2.9-2.9-4.3-2.7-7.1,0.1
			c-53.3,53.3-106.6,106.5-160,159.7C106.5,309.8,105.3,310.8,104.1,311.8z"/>
		<path class="st7" d="M336.9,427.8c-20.6,0-41.3-0.1-61.9,0.1c-2.9,0-3.9-0.6-3.8-3.7c0.1-35.9,0.1-71.8,0-107.7
			c0-3.1,1-3.7,3.9-3.7c41.2,0.1,82.3,0.1,123.5,0c3,0,4.1,0.6,4.1,3.9c-0.1,35.8-0.1,71.5,0,107.3c0,3.3-1.1,3.9-4.1,3.9
			C377.9,427.7,357.4,427.8,336.9,427.8z"/>
		<path class="st4" d="M471.2,240.8c-3.2,0.5-5.4-0.8-7.6-3.1c-13.4-13.6-27-27-40.5-40.6c-2-2-4.4-4-3.1-7.4
			c-0.8-5.7-0.5-11.4-0.5-17.1c0-16.9,0-33.7,0-50.6c0-6-0.1-6.1-5.9-6.1c-11,0-22.1,0-33.1,0c-2.1,0-4.3,0.2-6.1-1.3
			c-4.8,0-9.6-0.2-14.4,0c-2.5,0.1-3.5-0.6-3.5-3.3c0.1-12.6,0.1-25.2,0-37.9c0-2.7,0.9-3.4,3.5-3.4c25.3,0.1,50.6,0.1,75.9,0
			c2.6,0,3.4,0.6,3.4,3.3c-0.1,12.6-0.1,25.2,0,37.9c0,2.6-0.7,3.5-3.4,3.4c-3.9-0.2-7.7,0-11.6-0.1c-1.9,0-2.9,0.3-2.9,2.6
			c0.1,23.8,0.1,47.6,0,71.4c0,2.2,1.4,3.3,2.7,4.6c14.5,14.5,29,28.9,43.5,43.4C468.8,237.9,470.4,239.1,471.2,240.8z"/>
		<path class="st8" d="M374.3,114.8c14.2,0,28.5,0,42.7-0.1c2.7,0,3.7,0.6,3.7,3.5c-0.1,22.9-0.1,45.7-0.1,68.6c0,1,0.2,2.2-0.7,3
			c-8.9-9.1-17.9-18.1-26.8-27.2c-6.3-6.4-13.1-12.5-18.9-19.3C374.2,133.7,374.3,124.3,374.3,114.8z"/>
		<path class="st9" d="M284.8,370.1c0-13.4,0.1-26.8-0.1-40.3c0-2.5,0.6-3.5,3.3-3.5c12.8,0.1,25.6,0.1,38.4,0c2.9,0,3.5,1,3.5,3.7
			c-0.1,26.8-0.1,53.7,0,80.5c0,2.8-0.7,3.6-3.6,3.6c-12.8-0.1-25.6-0.1-38.4,0c-2.7,0-3.3-1-3.3-3.4
			C284.8,397.2,284.8,383.7,284.8,370.1z"/>
		<path class="st9" d="M388.8,370.5c0,13.3-0.1,26.6,0.1,39.9c0,2.8-0.4,4-3.6,3.9c-12.6-0.2-25.3-0.2-38,0c-2.8,0-3.6-0.7-3.6-3.6
			c0.1-26.8,0.1-53.7,0-80.5c0-2.6,0.5-3.8,3.5-3.7c12.8,0.1,25.6,0.1,38.4,0c2.6,0,3.4,0.8,3.3,3.4
			C388.7,343.3,388.8,356.9,388.8,370.5z"/>
	</g>
</g>
</svg>
