<?xml version="1.0" encoding="utf-8"?>
<!-- Generator: Adobe Illustrator 24.3.0, SVG Export Plug-In . SVG Version: 6.00 Build 0)  -->
<svg version="1.1" id="Calque_1" xmlns="http://www.w3.org/2000/svg" xmlns:xlink="http://www.w3.org/1999/xlink" x="0px" y="0px"
	 viewBox="0 0 1717.3 514.4" style="enable-background:new 0 0 1717.3 514.4;" xml:space="preserve">
<style type="text/css">
	.st0{fill:#FED05C;}
	.st1{fill:#FEFEFE;}
	.st2{fill:#F2705A;}
	.st3{fill:#415A6B;}
	.st4{fill:#F6B54C;}
	.st5{fill:#344A5E;}
	.st6{fill:#EF5540;}
	.st7{fill:#89D6F7;}
	.st8{fill:#38ABE2;}
</style>
<g>
	<g>
		<g>
			<path class="st0" d="M442.3,461.9c-65.6,0-131.2,0-196.7,0c-1.6-2-1.2-4.3-1.2-6.5c0-28.6,0.1-57.2-0.1-85.8
				c-0.1-9.8-0.9-19.6-5.8-28.6c-8.4-15.5-21.1-24.5-38.8-26.5c-27.3-3-50.6,17.8-53.4,42.3c-0.2,2.1-0.3,4.2-0.3,6.4
				c0,30.7,0,61.4,0,92.2c0,2.2,0.5,4.6-1.2,6.5c-12.3,0-24.5,0-36.8,0c-1.2-1.3-1.3-2.9-1.3-4.5c0-47.4-0.1-94.7,0-142.1
				c0-0.5,0.1-1.1,0.1-1.6c0.3-2,1.6-3.3,2.9-4.6c53.8-53.7,107.6-107.4,161.4-161.1c3.6-3.6,4.3-3.6,7.8-0.1
				c53.8,53.7,107.6,107.4,161.4,161.1c1.3,1.3,2.7,2.6,2.9,4.6c0.3,1.7,0.2,3.5,0.2,5.2c0,45.4,0,90.8,0,136.2
				C443.6,457.4,444.1,459.9,442.3,461.9z"/>
			<path class="st1" d="M72.1,252c0-65.4,0-130.8-0.1-196.2c0-2.5,0.2-3.4,3.2-3.4c134.4,0.1,268.8,0.1,403.3,0
				c2.9,0,3.2,0.9,3.2,3.4c-0.1,65.7-0.1,131.4-0.1,197c-2,0-2-1.8-2.4-3c-1-3.5-2.8-6.4-5.3-9c-15.5-15.2-30.7-30.6-46.1-45.9
				c-2.3-2.3-3.3-4.9-3.3-8.2c0.1-22.3,0-44.7,0-67c0-5.3,0.7-6,6-6.1c2.7-0.1,5.3,0,8,0c2.3,0,3.5-0.9,3.5-3.3
				c0.1-11.8,0-23.7,0-35.5c0-3.2-2.1-3.5-4.6-3.5c-11.3,0-22.6,0-34,0c-12.1,0-24.2,0-36.4,0c-4.6,0-5,0.4-5,5
				c0,10.9,0,21.8,0,32.7c0,4.2,0.4,4.3,4.6,4.6c4,0.3,8.3-1.1,12.1,1.2c0.8,1.2,0.9,2.5,0.9,3.8c-0.1,7.8,0.4,15.6-0.2,23.3
				c-0.4,1.7-1.3,2.2-2.9,1.1c-1.3-0.9-2.4-2.1-3.5-3.2c-25.7-25.7-51.7-51.1-77.1-77.1C285.4,52,267.4,52.1,257,62.6
				C206.7,113.3,156,163.5,105.7,214c-8.7,8.8-17.3,17.7-25.9,26.6c-2.3,2.4-4,5.3-5.2,8.4C74.1,250.3,74.2,252.1,72.1,252z"/>
			<path class="st2" d="M475.2,240.8c3.8,3.1,4.2,8,6.4,12c0,3.5,0,6.9,0,10.4c-3.6,21.2-25.1,26.7-38.8,20.1
				c-4.6-2.3-8.4-5.6-12-9.2c-49.8-49.7-99.6-99.4-149.4-149.1c-0.8-0.8-1.7-1.7-2.5-2.5c-1.3-1.3-2.5-1.3-3.8,0
				c-0.9,0.9-1.9,1.9-2.8,2.8c-49.8,49.7-99.6,99.4-149.4,149.1c-4.8,4.8-9.9,8.9-16.7,10.5c-12.5,3.5-25.8-2.2-31.9-13.6
				c-1.3-2.3-0.8-5-2-7.2c0-4,0-8,0-12c6.1-15.8,20-25.2,31.2-36.6C153.7,164.4,204.5,113.7,255.2,63c12.9-12.9,29.3-12.9,42.3,0
				c25.8,25.8,51.6,51.5,77.5,77.3c1,1,2.1,2,3.2,3c1.6,0.3,2.4,1.6,3.5,2.6c13.3,13.2,26.6,26.5,39.8,39.7c1.2,1.2,2.6,2.3,3,4.1
				c-0.2,2.8,1.2,4.8,3,6.7c13.8,13.8,27.6,27.5,41.4,41.4C470.7,239.6,473.1,239.6,475.2,240.8z"/>
			<path class="st3" d="M144.8,461.9c-0.1-1.7-0.2-3.4-0.2-5.2c0-30.8-0.1-61.7,0-92.5c0.1-25.4,16-45,40.5-50.3
				c28.9-6.2,58.5,16.1,59.7,45.5c1.2,32.4,0.2,64.9,0.5,97.3c0,1.7,0.2,3.4,0.3,5.2C212,461.9,178.4,461.9,144.8,461.9z"/>
			<path class="st1" d="M442.4,282.3c7,2.5,14,3.5,21.3,1c8.2-2.9,13.4-8.6,16.3-16.6c0.4-1.2,0.3-2.6,1.6-3.5
				c0,65.2,0,130.4,0.1,195.5c0,2.7-0.5,3.3-3.3,3.3c-12-0.2-24-0.1-36-0.1c0-48.3,0-96.6,0-144.9c0-1.7-0.1-3.4-0.1-5.2
				c-0.8-1.6-1.1-3.2-1.1-5c0-6.7,0-13.4,0-20.1C441.1,285.1,441.1,283.5,442.4,282.3z"/>
			<path class="st1" d="M72.1,264c0.9,0.3,1,1.2,1.2,1.9c5.2,14.8,18.5,21.9,33.4,17.7c1.6-0.1,2.3,0.9,2.3,2.2
				c0.4,8.2,0.8,16.4-0.2,24.6c-0.1,0.5-0.4,1-0.7,1.4c0,21.4-0.1,42.7-0.1,64.1c0,28.7,0,57.3,0.1,86c-11.1,0-22.1-0.1-33.2,0.1
				c-2.4,0-2.9-0.5-2.9-2.9c0.1-51.3,0.1-102.7,0.1-154C72.1,291.4,72.1,277.7,72.1,264z"/>
			<path class="st4" d="M108.1,311.8c-0.1-8.2-0.1-16.3-0.2-24.5c0-1.3,0.6-3-1.2-3.8c5.8-1.3,10.2-4.9,14.3-9
				c50.7-50.6,101.4-101.2,152.1-151.8c4.2-4.2,3.2-4.2,7.5,0.1c49.8,49.7,99.5,99.3,149.3,149c3.9,3.9,7.9,7.5,12.5,10.4
				c-0.1,9.8-0.1,19.7-0.2,29.5c-1.2-1.1-2.4-2.1-3.5-3.2C385.3,255.4,332,202.2,278.7,148.8c-2.9-2.9-4.3-2.7-7.1,0.1
				c-53.3,53.3-106.6,106.5-160,159.7C110.5,309.8,109.3,310.8,108.1,311.8z"/>
			<path class="st5" d="M340.9,427.8c-20.6,0-41.3-0.1-61.9,0.1c-2.9,0-3.9-0.6-3.8-3.7c0.1-35.9,0.1-71.8,0-107.7
				c0-3.1,1-3.7,3.9-3.7c41.2,0.1,82.3,0.1,123.5,0c3,0,4.1,0.6,4.1,3.9c-0.1,35.8-0.1,71.5,0,107.3c0,3.3-1.1,3.9-4.1,3.9
				C381.9,427.7,361.4,427.8,340.9,427.8z"/>
			<path class="st2" d="M475.2,240.8c-3.2,0.5-5.4-0.8-7.6-3.1c-13.4-13.6-27-27-40.5-40.6c-2-2-4.4-4-3.1-7.4
				c-0.8-5.7-0.5-11.4-0.5-17.1c0-16.9,0-33.7,0-50.6c0-6-0.1-6.1-5.9-6.1c-11,0-22.1,0-33.1,0c-2.1,0-4.3,0.2-6.1-1.3
				c-4.8,0-9.6-0.2-14.4,0c-2.5,0.1-3.5-0.6-3.5-3.3c0.1-12.6,0.1-25.2,0-37.9c0-2.7,0.9-3.4,3.5-3.4c25.3,0.1,50.6,0.1,75.9,0
				c2.6,0,3.4,0.6,3.4,3.3c-0.1,12.6-0.1,25.2,0,37.9c0,2.6-0.7,3.5-3.4,3.4c-3.9-0.2-7.7,0-11.6-0.1c-1.9,0-2.9,0.3-2.9,2.6
				c0.1,23.8,0.1,47.6,0,71.4c0,2.2,1.4,3.3,2.7,4.6c14.5,14.5,29,28.9,43.5,43.4C472.8,237.9,474.4,239.1,475.2,240.8z"/>
			<path class="st6" d="M378.3,114.8c14.2,0,28.5,0,42.7-0.1c2.7,0,3.7,0.6,3.7,3.5c-0.1,22.9-0.1,45.7-0.1,68.6c0,1,0.2,2.2-0.7,3
				c-8.9-9.1-17.9-18.1-26.8-27.2c-6.3-6.4-13.1-12.5-18.9-19.3C378.2,133.7,378.3,124.3,378.3,114.8z"/>
			<path class="st7" d="M288.8,370.1c0-13.4,0.1-26.8-0.1-40.3c0-2.5,0.6-3.5,3.3-3.5c12.8,0.1,25.6,0.1,38.4,0c2.9,0,3.5,1,3.5,3.7
				c-0.1,26.8-0.1,53.7,0,80.5c0,2.8-0.7,3.6-3.6,3.6c-12.8-0.1-25.6-0.1-38.4,0c-2.7,0-3.3-1-3.3-3.4
				C288.8,397.2,288.8,383.7,288.8,370.1z"/>
			<path class="st7" d="M392.8,370.5c0,13.3-0.1,26.6,0.1,39.9c0,2.8-0.4,4-3.6,3.9c-12.6-0.2-25.3-0.2-38,0c-2.8,0-3.6-0.7-3.6-3.6
				c0.1-26.8,0.1-53.7,0-80.5c0-2.6,0.5-3.8,3.5-3.7c12.8,0.1,25.6,0.1,38.4,0c2.6,0,3.4,0.8,3.3,3.4
				C392.7,343.3,392.8,356.9,392.8,370.5z"/>
		</g>
	</g>
	<g>
		<g>
			<path class="st3" d="M710.2,92.3v134h-32.6v-83.8l-29,83.8h-28.3l-29.2-84v84h-32.6v-134h39.9l36.5,93.4l35.7-93.4L710.2,92.3
				L710.2,92.3z"/>
			<path class="st3" d="M765.3,91.3v135h-32.6v-135H765.3z"/>
			<path class="st3" d="M939.6,92.3v134H907v-83.8l-29,83.8h-28.3l-29.2-84v84h-32.6v-134h39.9l36.5,93.4L900,92.3H939.6L939.6,92.3
				z"/>
			<path class="st3" d="M1060.9,98.1c10.4,5.9,18.5,14.1,24.5,24.6s9,22.4,9,35.6s-3,25.1-9.1,35.7c-6,10.6-14.3,18.8-24.6,24.7
				c-10.4,5.9-21.9,8.9-34.5,8.9s-24.1-3-34.5-8.9s-18.6-14.2-24.6-24.7c-6-10.6-9.1-22.5-9.1-35.7s3-25.1,9.1-35.6
				c6-10.5,14.3-18.7,24.6-24.6c10.4-5.9,21.9-8.9,34.5-8.9C1039,89.2,1050.6,92.2,1060.9,98.1z M1000.8,130
				c-6.3,6.9-9.5,16.4-9.5,28.3c0,11.8,3.2,21.3,9.5,28.3s14.8,10.5,25.5,10.5c10.6,0,19-3.5,25.4-10.5s9.5-16.4,9.5-28.3
				c0-11.8-3.2-21.3-9.5-28.3c-6.3-7-14.8-10.5-25.5-10.5C1015.6,119.6,1007.1,123,1000.8,130z"/>
			<path class="st3" d="M1213.1,168.6c4.8,6,7.2,12.9,7.2,20.8c0,11.6-3.9,20.6-11.6,27.1s-18.7,9.7-33.1,9.7h-62.8v-135h61.3
				c13.7,0,24.4,3,31.9,9s11.3,14.5,11.3,25.6c0,8.1-2.2,14.9-6.5,20.3s-10,8.9-17,10.6C1201.9,158.7,1208.3,162.6,1213.1,168.6z
				 M1145.4,146.5h21.4c11.3,0,17-4.8,17-14.5s-5.8-14.5-17.4-14.5h-21V146.5z M1186.8,184.8c0-4.8-1.6-8.6-4.8-11.4
				c-3.2-2.7-7.7-4.1-13.6-4.1h-23.1v30.4h23.3C1180.8,199.7,1186.8,194.8,1186.8,184.8z"/>
			<path class="st3" d="M1270.1,91.3v135h-32.6v-135H1270.1z"/>
			<path class="st3" d="M1325.2,201.3h43.5v25h-76.2v-135h32.6L1325.2,201.3L1325.2,201.3z"/>
			<path class="st3" d="M1416.5,91.3v135h-32.6v-135H1416.5z"/>
			<path class="st3" d="M1471.7,117.3v28.3h45.6v24.6h-45.6v30h51.4v26.2h-84v-135h84v26L1471.7,117.3L1471.7,117.3z"/>
			<path class="st3" d="M1610.8,226.3l-29.2-51h-7.4v51h-32.6v-135h55.7c10.7,0,19.7,1.8,27.1,5.5s12.9,8.8,16.6,15.2
				c3.7,6.4,5.5,13.8,5.5,22c0,9.8-2.7,18.1-8.1,25s-13.3,11.6-23.6,14.1l32.1,53.1L1610.8,226.3L1610.8,226.3z M1574.2,153h20.2
				c6.5,0,11.3-1.4,14.3-4.3c3.1-2.9,4.6-7.1,4.6-12.7c0-5.3-1.6-9.5-4.7-12.6s-7.9-4.6-14.2-4.6h-20.2L1574.2,153L1574.2,153z"/>
		</g>
		<g>
			<path class="st8" d="M664.6,395.9h-57.5l-9.5,28h-39.1l56.2-152.3h42.7l56.2,152.3h-39.5L664.6,395.9z M655.1,367.7L636,311.3
				l-19.3,56.4L655.1,367.7L655.1,367.7z"/>
			<path class="st8" d="M846.5,284.4c12.8,10.3,21.1,24.2,24.8,41.7H832c-2.9-7.1-7.3-12.7-13.3-16.7s-13.1-6.1-21.4-6.1
				c-10.8,0-19.6,4-26.3,11.9c-6.7,8-10,18.6-10,31.9s3.3,23.9,10,31.8s15.4,11.8,26.3,11.8c8.2,0,15.4-2,21.4-6.1
				c6-4,10.4-9.5,13.3-16.5h39.3c-3.8,17.4-12,31.2-24.8,41.6c-12.8,10.3-29,15.5-48.5,15.5c-14.9,0-28-3.3-39.3-9.9
				s-20-15.8-26.1-27.7c-6.2-11.9-9.2-25.4-9.2-40.6s3.1-28.7,9.2-40.6c6.1-11.9,14.9-21.1,26.1-27.7c11.3-6.6,24.4-9.9,39.3-9.9
				C817.6,269,833.7,274.1,846.5,284.4z"/>
			<path class="st8" d="M1024.8,270.5v153.4h-37.3v-64h-58.2v64h-37.1V270.5h37.1V330h58.2v-59.5H1024.8z"/>
			<path class="st8" d="M1145.4,395.9h-57.5l-9.5,28h-39.1l56.2-152.3h42.7l56.2,152.3H1155L1145.4,395.9z M1135.9,367.7l-19.1-56.4
				l-19.3,56.4H1135.9z"/>
			<path class="st8" d="M1319,270.5V300h-41.7v123.9H1240V300h-41.2v-29.5H1319z"/>
		</g>
	</g>
</g>
</svg>
