<?xml version="1.0" encoding="utf-8"?>
<!-- Generator: Adobe Illustrator 24.3.0, SVG Export Plug-In . SVG Version: 6.00 Build 0)  -->
<svg version="1.1" id="Calque_1" xmlns="http://www.w3.org/2000/svg" xmlns:xlink="http://www.w3.org/1999/xlink" x="0px" y="0px"
	 viewBox="0 0 1717.3 514.4" style="enable-background:new 0 0 1717.3 514.4;" xml:space="preserve">
<style type="text/css">
	.st0{fill:#3453A1;}
	.st1{enable-background:new    ;}
</style>
<path class="st0" d="M271.3,168.4v187h38.1v-187H271.3z M288.4,197.4h-8.1v-8.1h8.1V197.4z M288.4,185.6h-8.1v-8.1h8.1V185.6z
	 M300.2,197.4h-8.1v-8.1h8.1V197.4z M300.2,185.6h-8.1v-8.1h8.1V185.6z"/>
<path class="st0" d="M418.4,241.1c0,40.1-32.5,72.7-72.6,72.7c0,0,0,0,0,0h-26.2v-37.2h27.2c19.8,0,35.9-16.1,35.9-35.9
	c0-19.8-16.1-35.9-35.9-35.9h-27.2v-36.4h26.2C385.9,168.4,418.4,201,418.4,241.1C418.4,241.1,418.4,241.1,418.4,241.1L418.4,241.1z
	"/>
<polygon class="st0" points="300.2,159 300.2,162.4 265.3,162.4 265.3,197.3 261.8,197.3 261.8,159 "/>
<path class="st0" d="M182,318.4c-2.3,2.4-4,5.2-5.3,8.2c2-1,3.8-2.3,5.5-3.7c3-2.5,6.6-4.1,10.5-4.5c1.1-0.1,2.2-0.2,3.3-0.1
	c3.6,0.1,7.2,0.1,10.8,0.1h41c1.4,0,2.5,1.1,2.5,2.5l0,0v34.5H120.8l0.2-2.7c0.5-5.7,1.7-11.2,3.5-16.6c3.8-12,10.5-23.1,21.1-34.9
	c9.9-11,20.9-21.2,31.6-31l1.4-1.3c1-0.9,2-1.8,2.9-2.7c7.2-6.6,14.7-13.4,20.7-21.2c6.4-8.2,8.8-17,7.2-26
	c-0.5-3.2-1.7-6.3-3.6-8.9c-3.4-4.7-8.9-7.3-16.1-7.6c-3.1-0.2-6.2,0.2-9.2,1c2.6-2.9,4.9-5.5,7.2-8.2c-7.9,3.3-14.4,9.2-18.4,16.7
	c0,0.1,0,0.1-0.1,0.1c-0.3,0.5-0.5,1-0.8,1.5c-0.1,0.2-0.2,0.4-0.3,0.5c-1,2.4-1.7,4.8-2.1,7.4c-0.3,1.5-0.5,3-0.7,4.6
	c-0.1,0.8-0.2,1.6-0.3,2.4l-0.4,2.4l-37.6-3.6c-1.4-0.1-2.4-1.4-2.3-2.7c0-0.1,0-0.1,0-0.2l0,0c0.2-1.1,0.4-2.3,0.6-3.4
	c0.4-2.5,0.8-4.8,1.3-7.2c3-13.2,8.1-22.6,16.2-29.7c8-7.1,18.1-11.8,29.9-13.8c14.7-2.6,28.1-1.9,40.8,2
	c23.1,7.2,37.5,27.4,36.8,51.3c-0.5,14.4-5.8,28.1-16.2,42.1c-6.6,8.9-14.8,16.4-22.6,23.7l-0.7,0.6c-2.2,2-4.3,4-6.5,6
	c-3.2,3-6.5,6-9.8,9c-2.2,2-4.4,4.1-6.5,6.2C186,313.5,184,315.8,182,318.4C182,318.3,182,318.4,182,318.4z"/>
<path class="st0" d="M511.1,257.2c0,125.4-110.5,227.1-247.2,228.1c125.4-12.7,220.9-110,220.9-228.1c0-118.2-95.6-215.5-221-228.1
	C400.6,30.1,511.1,131.8,511.1,257.2z"/>
<path class="st0" d="M267.2,467.6c50.3,0.1,99-18,137.2-50.8c-41.3,40.1-96.7,62.5-154.3,62.4c-120.7,0-218.9-96.3-221.9-216.2
	c0-1,0-1.9-0.1-2.9c0-1,0-1.9,0-2.9c0-1,0-1.9,0-2.9c0-1,0-1.9,0.1-2.9c3-119.9,101.2-216.2,221.9-216.2
	c57.6-0.1,112.9,22.3,154.3,62.4c-38.1-32.9-86.8-50.9-137.2-50.8C151,46.8,56.8,141,56.8,257.2C56.8,373.4,151,467.6,267.2,467.6z"
	/>
<g>
	<g class="st1">
		<path class="st0" d="M591.7,176.9v44.4h-30.6V94.7h49.6c15,0,26.5,3.7,34.4,11.2c7.9,7.5,11.8,17.5,11.8,30.1
			c0,7.9-1.8,14.9-5.3,21c-3.5,6.1-8.7,11-15.7,14.5c-6.9,3.5-15.3,5.3-25.2,5.3H591.7z M625.7,136.1c0-11.1-6.1-16.6-18.4-16.6
			h-15.6v32.9h15.6C619.6,152.3,625.7,146.9,625.7,136.1z"/>
		<path class="st0" d="M729.5,125.3c5.5,3.5,9.5,8.2,12.2,14.1v-18.1h30.4v99.8h-30.4v-18.1c-2.6,6-6.7,10.7-12.2,14.1
			c-5.5,3.5-12.1,5.2-19.7,5.2c-8.2,0-15.6-2.1-22.1-6.2c-6.5-4.1-11.6-10-15.4-17.8c-3.8-7.8-5.6-16.8-5.6-27.2
			c0-10.5,1.9-19.6,5.6-27.3c3.8-7.7,8.9-13.6,15.4-17.7c6.5-4.1,13.9-6.2,22.1-6.2C717.5,120.1,724,121.9,729.5,125.3z
			 M703.8,153.4c-4,4.3-6,10.3-6,17.9c0,7.6,2,13.6,6,17.9c4,4.3,9.3,6.4,15.8,6.4c6.4,0,11.7-2.2,15.8-6.6
			c4.1-4.4,6.2-10.3,6.2-17.7c0-7.5-2.1-13.4-6.2-17.8c-4.1-4.4-9.4-6.5-15.8-6.5C713.1,147,707.8,149.1,703.8,153.4z"/>
		<path class="st0" d="M838.5,125.7c6-3.6,12.6-5.4,19.6-5.4v32.7h-8.8c-8.1,0-14.4,1.7-18.9,5.2c-4.5,3.5-6.7,9.3-6.7,17.5v45.4
			h-30.6v-99.8h30.6v18.8C827.6,134.1,832.5,129.3,838.5,125.7z"/>
		<path class="st0" d="M927.6,194.9v26.3h-13.8c-11.7,0-20.8-2.9-27.3-8.7c-6.5-5.8-9.8-15.4-9.8-28.7v-36.7h-13.4v-25.8h13.4V96.9
			h30.6v24.5h20v25.8h-20v37.2c0,3.9,0.8,6.7,2.4,8.2c1.6,1.6,4.3,2.3,8.1,2.3H927.6z"/>
		<path class="st0" d="M946.9,81.8c3.3-3,7.8-4.6,13.2-4.6c5.5,0,9.9,1.5,13.2,4.6c3.3,3,5,6.9,5,11.5c0,4.5-1.7,8.3-5,11.4
			c-3.3,3-7.8,4.6-13.2,4.6c-5.5,0-9.9-1.5-13.2-4.6c-3.3-3-5-6.8-5-11.4C941.9,88.7,943.5,84.8,946.9,81.8z M975.3,121.4v99.8
			h-30.6v-99.8H975.3z"/>
		<path class="st0" d="M1073.9,130.8c8.7,7.1,14.2,16.8,16.5,29.3H1058c-1-4.3-2.9-7.6-5.9-10c-3-2.4-6.7-3.6-11.3-3.6
			c-5.4,0-9.8,2.1-13.2,6.4c-3.5,4.2-5.2,10.4-5.2,18.5c0,8.1,1.7,14.3,5.2,18.5c3.5,4.2,7.9,6.3,13.2,6.3c4.5,0,8.3-1.2,11.3-3.6
			c3-2.4,4.9-5.7,5.9-10h32.4c-2.3,12.4-7.8,22.2-16.5,29.3c-8.7,7.1-19.5,10.6-32.4,10.6c-9.8,0-18.5-2.1-26-6.2
			c-7.6-4.1-13.5-10-17.8-17.8c-4.3-7.8-6.4-16.8-6.4-27.2c0-10.5,2.1-19.6,6.3-27.3c4.2-7.7,10.2-13.6,17.8-17.7
			c7.6-4.1,16.3-6.2,26.1-6.2C1054.4,120.1,1065.2,123.7,1073.9,130.8z"/>
		<path class="st0" d="M1205.6,121.4v99.8h-30.8v-18.1c-2.9,5.8-7.1,10.5-12.8,14c-5.7,3.5-12.3,5.2-19.8,5.2
			c-11.5,0-20.5-3.8-27.3-11.5c-6.7-7.6-10.1-18.1-10.1-31.5v-58h30.4v54.2c0,6.8,1.8,12.1,5.3,15.8c3.5,3.8,8.3,5.6,14.2,5.6
			c6.2,0,11.1-2,14.7-5.9c3.6-3.9,5.4-9.5,5.4-16.8v-53H1205.6z"/>
		<path class="st0" d="M1257.3,88.8v132.4h-30.6V88.8H1257.3z"/>
		<path class="st0" d="M1280.5,81.8c3.3-3,7.8-4.6,13.2-4.6c5.5,0,9.9,1.5,13.2,4.6c3.3,3,5,6.9,5,11.5c0,4.5-1.7,8.3-5,11.4
			c-3.3,3-7.8,4.6-13.2,4.6c-5.5,0-9.9-1.5-13.2-4.6c-3.3-3-5-6.8-5-11.4C1275.5,88.7,1277.2,84.8,1280.5,81.8z M1309,121.4v99.8
			h-30.6v-99.8H1309z"/>
		<path class="st0" d="M1424,176.9h-69.2c0.4,7.5,2.3,12.9,5.7,16.2c3.5,3.3,7.9,4.9,13.2,4.9c4.5,0,8.3-1.1,11.3-3.4
			c3-2.3,4.9-5.2,5.9-8.8h32.4c-1.3,7-4.2,13.3-8.6,18.9c-4.4,5.5-10,9.9-16.8,13.1c-6.8,3.2-14.4,4.7-22.7,4.7
			c-9.8,0-18.5-2.1-26-6.2c-7.6-4.1-13.5-10-17.8-17.8c-4.3-7.8-6.4-16.8-6.4-27.2c0-10.5,2.1-19.6,6.3-27.3
			c4.2-7.7,10.2-13.6,17.8-17.7c7.6-4.1,16.3-6.2,26.1-6.2c9.9,0,18.6,2,26.1,6.1c7.5,4.1,13.3,9.8,17.4,17.1
			c4.1,7.3,6.2,15.8,6.2,25.3C1424.9,171.1,1424.6,173.9,1424,176.9z M1388.7,149.2c-3.6-3.3-8.1-4.9-13.5-4.9c-5.6,0-10.3,1.7-14,5
			c-3.7,3.3-5.8,8.2-6.3,14.7h39C1394.1,157.4,1392.3,152.5,1388.7,149.2z"/>
		<path class="st0" d="M1486.2,125.7c6-3.6,12.6-5.4,19.6-5.4v32.7h-8.8c-8.1,0-14.4,1.7-18.9,5.2c-4.5,3.5-6.7,9.3-6.7,17.5v45.4
			h-30.6v-99.8h30.6v18.8C1475.2,134.1,1480.2,129.3,1486.2,125.7z"/>
	</g>
	<g class="st1">
		<path class="st0" d="M618.8,340c5.5,3.5,9.5,8.2,12.2,14.1v-18.1h30.4v99.8h-30.4v-18.1c-2.6,6-6.7,10.7-12.2,14.1
			c-5.5,3.5-12,5.2-19.7,5.2c-8.2,0-15.6-2.1-22.1-6.2c-6.5-4.1-11.6-10-15.4-17.8c-3.8-7.8-5.6-16.8-5.6-27.2
			c0-10.5,1.9-19.6,5.6-27.3c3.8-7.7,8.9-13.6,15.4-17.7c6.5-4.1,13.9-6.2,22.1-6.2C606.7,334.8,613.3,336.6,618.8,340z
			 M625.9,308.2v20.8l-43.1-18.4v-23.1L625.9,308.2z M593.1,368.1c-4,4.3-6,10.3-6,17.9c0,7.6,2,13.6,6,17.9c4,4.3,9.3,6.4,15.8,6.4
			c6.4,0,11.7-2.2,15.8-6.6c4.1-4.4,6.2-10.3,6.2-17.7c0-7.5-2.1-13.4-6.2-17.8c-4.1-4.4-9.4-6.5-15.8-6.5
			C602.4,361.7,597.1,363.8,593.1,368.1z"/>
		<path class="st0" d="M748.8,391.5v44.4h-30.6V309.4h49.6c15,0,26.5,3.7,34.4,11.2c7.9,7.5,11.8,17.5,11.8,30.1
			c0,7.9-1.8,14.9-5.3,21c-3.5,6.1-8.7,11-15.7,14.5c-6.9,3.5-15.3,5.3-25.2,5.3H748.8z M782.8,350.8c0-11.1-6.1-16.6-18.4-16.6
			h-15.6V367h15.6C776.7,367,782.8,361.6,782.8,350.8z"/>
		<path class="st0" d="M886.6,340c5.5,3.5,9.5,8.2,12.2,14.1v-18.1h30.4v99.8h-30.4v-18.1c-2.6,6-6.7,10.7-12.2,14.1
			c-5.5,3.5-12,5.2-19.7,5.2c-8.2,0-15.6-2.1-22.1-6.2c-6.5-4.1-11.6-10-15.4-17.8c-3.8-7.8-5.6-16.8-5.6-27.2
			c0-10.5,1.9-19.6,5.6-27.3s8.9-13.6,15.4-17.7c6.5-4.1,13.9-6.2,22.1-6.2C874.5,334.8,881.1,336.6,886.6,340z M860.9,368.1
			c-4,4.3-6,10.3-6,17.9c0,7.6,2,13.6,6,17.9c4,4.3,9.3,6.4,15.8,6.4c6.4,0,11.7-2.2,15.8-6.6c4.1-4.4,6.2-10.3,6.2-17.7
			c0-7.5-2.1-13.4-6.2-17.8c-4.1-4.4-9.4-6.5-15.8-6.5C870.2,361.7,864.9,363.8,860.9,368.1z"/>
		<path class="st0" d="M995.6,340.4c6-3.6,12.6-5.4,19.6-5.4v32.7h-8.8c-8.1,0-14.4,1.7-18.9,5.2c-4.5,3.5-6.7,9.3-6.7,17.5v45.4
			h-30.6v-99.8h30.6v18.8C984.7,348.8,989.6,344,995.6,340.4z"/>
		<path class="st0" d="M1084.6,409.6v26.3h-13.8c-11.7,0-20.8-2.9-27.3-8.7c-6.5-5.8-9.8-15.4-9.8-28.7v-36.7h-13.4v-25.8h13.4
			v-24.5h30.6v24.5h20v25.8h-20v37.2c0,3.9,0.8,6.7,2.4,8.2c1.6,1.6,4.3,2.3,8.1,2.3H1084.6z"/>
		<path class="st0" d="M1104,296.5c3.3-3,7.8-4.6,13.2-4.6c5.5,0,9.9,1.5,13.2,4.6c3.3,3,5,6.9,5,11.5c0,4.5-1.7,8.3-5,11.4
			c-3.3,3-7.8,4.6-13.2,4.6c-5.5,0-9.9-1.5-13.2-4.6c-3.3-3-5-6.8-5-11.4C1098.9,303.3,1100.6,299.5,1104,296.5z M1132.4,336.1v99.8
			h-30.6v-99.8H1132.4z"/>
		<path class="st0" d="M1231,345.5c8.7,7.1,14.2,16.8,16.5,29.3h-32.4c-1-4.3-2.9-7.6-5.9-10c-3-2.4-6.7-3.6-11.3-3.6
			c-5.4,0-9.8,2.1-13.2,6.4c-3.5,4.2-5.2,10.4-5.2,18.5c0,8.1,1.7,14.3,5.2,18.5c3.5,4.2,7.9,6.3,13.2,6.3c4.5,0,8.3-1.2,11.3-3.6
			c3-2.4,4.9-5.7,5.9-10h32.4c-2.3,12.4-7.8,22.2-16.5,29.3c-8.7,7.1-19.5,10.6-32.4,10.6c-9.8,0-18.5-2.1-26-6.2
			c-7.6-4.1-13.5-10-17.8-17.8c-4.3-7.8-6.4-16.8-6.4-27.2c0-10.5,2.1-19.6,6.4-27.3c4.2-7.7,10.2-13.6,17.8-17.7
			c7.6-4.1,16.3-6.2,26.1-6.2C1211.5,334.8,1222.3,338.4,1231,345.5z"/>
		<path class="st0" d="M1362.7,336.1v99.8h-30.8v-18.1c-2.9,5.8-7.1,10.5-12.8,14c-5.7,3.5-12.3,5.2-19.8,5.2
			c-11.5,0-20.5-3.8-27.3-11.5c-6.7-7.6-10.1-18.1-10.1-31.5v-58h30.4v54.2c0,6.8,1.8,12.1,5.3,15.8c3.5,3.8,8.3,5.6,14.2,5.6
			c6.2,0,11.1-2,14.7-5.9c3.6-3.9,5.4-9.5,5.4-16.8v-53H1362.7z"/>
		<path class="st0" d="M1414.4,303.5v132.4h-30.6V303.5H1414.4z"/>
		<path class="st0" d="M1437.6,296.5c3.3-3,7.8-4.6,13.2-4.6c5.5,0,9.9,1.5,13.2,4.6c3.3,3,5,6.9,5,11.5c0,4.5-1.7,8.3-5,11.4
			c-3.3,3-7.8,4.6-13.2,4.6c-5.5,0-9.9-1.5-13.2-4.6c-3.3-3-5-6.8-5-11.4C1432.6,303.3,1434.3,299.5,1437.6,296.5z M1466.1,336.1
			v99.8h-30.6v-99.8H1466.1z"/>
		<path class="st0" d="M1581.1,391.5h-69.2c0.4,7.5,2.3,12.9,5.7,16.2c3.5,3.3,7.9,4.9,13.2,4.9c4.5,0,8.3-1.1,11.3-3.4
			c3-2.3,4.9-5.2,5.9-8.8h32.4c-1.3,7-4.2,13.3-8.6,18.9c-4.4,5.5-10,9.9-16.8,13.1c-6.8,3.2-14.4,4.7-22.7,4.7
			c-9.8,0-18.5-2.1-26-6.2c-7.6-4.1-13.5-10-17.8-17.8c-4.3-7.8-6.4-16.8-6.4-27.2c0-10.5,2.1-19.6,6.4-27.3
			c4.2-7.7,10.2-13.6,17.8-17.7c7.6-4.1,16.3-6.2,26.1-6.2c9.9,0,18.6,2,26.1,6.1c7.5,4.1,13.3,9.8,17.4,17.1
			c4.1,7.3,6.2,15.8,6.2,25.3C1582,385.8,1581.7,388.6,1581.1,391.5z M1545.8,363.9c-3.6-3.3-8.1-4.9-13.5-4.9c-5.6,0-10.3,1.7-14,5
			c-3.7,3.3-5.8,8.2-6.3,14.7h39C1551.2,372.1,1549.4,367.2,1545.8,363.9z"/>
		<path class="st0" d="M1643.3,340.4c6-3.6,12.6-5.4,19.6-5.4v32.7h-8.8c-8.1,0-14.4,1.7-18.9,5.2c-4.5,3.5-6.7,9.3-6.7,17.5v45.4
			h-30.6v-99.8h30.6v18.8C1632.3,348.8,1637.2,344,1643.3,340.4z"/>
	</g>
</g>
</svg>
